<?xml version="1.0" encoding="UTF-8"?>
<svg width="88px" height="20px" viewBox="0 0 88 20" version="1.1" xmlns="http://www.w3.org/2000/svg" xmlns:xlink="http://www.w3.org/1999/xlink">
    <!-- Generator: Sketch 48.2 (47327) - http://www.bohemiancoding.com/sketch -->
    <title>Group 87</title>
    <desc>Created with Sketch.</desc>
    <defs></defs>
    <g id="logo/reuters/desktop/footer" stroke="none" stroke-width="1" fill="none" fill-rule="evenodd" opacity="0.7">
        <g id="Group-87" fill="#FFFFFF" fill-rule="nonzero">
            <path d="M77.13324,10.8287038 C77.13324,11.3456145 77.1522101,11.3593038 77.6148108,11.3593038 L79.1603359,11.3593038 C79.2259184,11.3593038 79.2817448,11.4148827 79.2817448,11.4825082 L79.2817448,11.8762145 C79.2817448,11.9632789 79.2508506,11.9942169 79.1603359,12.0059898 C78.9641303,12.0372015 78.5671122,12.0922328 77.8413685,12.0922328 C76.8267366,12.0922328 76.2904234,12.0993513 76.2904234,10.8287038 L76.2904234,8.87796821 C76.2904234,7.60759447 76.8267366,7.61498673 77.8413685,7.61498673 C78.5671122,7.61498673 78.9641303,7.67056558 79.1603359,7.7006822 C79.2508506,7.71245506 79.2817448,7.74394061 79.2817448,7.83073123 L79.2817448,8.22443758 C79.2817448,8.29178929 79.2259184,8.34818951 79.1603359,8.34818951 L77.6148108,8.34818951 C77.1522101,8.34818951 77.13324,8.36215267 77.13324,8.87796821 L77.13324,9.44333929 L79.0863523,9.44333929 C79.1541028,9.44333929 79.2074902,9.49946571 79.2074902,9.56626985 L79.2074902,10.0114482 C79.2074902,10.0785262 79.1541028,10.134105 79.0863523,10.134105 L77.13324,10.134105 L77.13324,10.8287038 Z M86.1584237,12.0952445 C85.6188585,12.0952445 85.0722472,12.0013354 84.7790229,11.9331623 C84.7185894,11.9208419 84.663034,11.8784048 84.663034,11.8105055 L84.663034,11.3664223 C84.663034,11.2990706 84.7185894,11.2489675 84.7790229,11.2489675 L84.791218,11.2489675 C85.0356619,11.2799055 85.6066634,11.360399 86.1708898,11.360399 C86.713436,11.360399 86.8798313,11.1640934 86.8798313,10.806527 C86.8798313,10.3441 85.7871508,10.0883825 85.2538186,9.8660671 C84.7229254,9.64457306 84.53485,9.21938116 84.53485,8.78843972 C84.53485,8.10972064 85.0752282,7.61690324 86.2101851,7.61690324 C86.7917557,7.61690324 87.3242748,7.72860852 87.5318625,7.77871162 C87.5931089,7.79075827 87.6413473,7.83401668 87.6413473,7.89534507 L87.6413473,8.35174874 C87.6413473,8.41280334 87.599613,8.46263266 87.5375535,8.46263266 L87.5259004,8.46263266 C87.1226492,8.42594514 86.705035,8.35065359 86.1746838,8.35065359 C85.7221103,8.35065359 85.3838996,8.51109304 85.3838996,8.78843972 C85.3838996,8.99131622 85.6131674,9.17776547 85.8841695,9.28645908 C86.1551717,9.39433134 86.5101844,9.53423672 86.9161456,9.69905676 C87.4302367,9.90932552 87.7635693,10.2151461 87.7635693,10.806527 C87.7635693,11.4288458 87.3792883,12.0952445 86.1584237,12.0952445 Z M82.9137153,9.00801725 C82.9137153,8.54559025 82.5584315,8.34818951 81.9470507,8.34818951 C81.8196797,8.34818951 81.2643964,8.36050994 81.1543695,8.37283038 L81.1543695,9.70973447 C81.2532853,9.71603158 81.8451539,9.72835202 81.9470507,9.72835202 C82.5771306,9.72835202 82.9137153,9.60596903 82.9137153,9.06386989 L82.9137153,9.00801725 Z M83.8294314,12.0434987 L83.0841756,12.0434987 C83.0169671,12.0434987 82.9931189,11.9808013 82.9630377,11.9200205 L82.0830938,10.4248673 L81.9470507,10.4248673 C81.7893275,10.4248673 81.2955616,10.4073449 81.1543695,10.4002264 L81.1543695,11.9200205 C81.1543695,11.9873722 81.1061311,12.0434987 81.0394646,12.0434987 L80.4297098,12.0434987 C80.3625013,12.0434987 80.3074879,11.9873722 80.3074879,11.9200205 L80.3074879,7.8794654 C80.3074879,7.75571347 80.3798454,7.71245506 80.5020674,7.69465887 C80.8191399,7.64537713 81.5026072,7.61498673 81.9470507,7.61498673 C82.8876991,7.61498673 83.7551769,7.95420937 83.7551769,9.00801725 L83.7551769,9.06386989 C83.7551769,9.71630537 83.4313293,10.0738718 82.9310594,10.2701774 L83.8901359,11.9200205 C83.902331,11.9386381 83.902331,11.9561605 83.902331,11.9698498 C83.902331,12.0120131 83.8776698,12.0434987 83.8294314,12.0434987 Z M75.5416445,8.37857991 L74.324303,8.37857991 L74.324303,11.9200205 C74.324303,11.9873722 74.2682055,12.0434987 74.200726,12.0434987 L73.5969333,12.0434987 C73.5297248,12.0434987 73.4747113,11.9873722 73.4747113,11.9200205 L73.4747113,8.37857991 L72.2562858,8.37857991 C72.1901613,8.37857991 72.1348768,8.33614286 72.1348768,8.26796978 L72.1348768,7.78090192 C72.1348768,7.71245506 72.1901613,7.66372089 72.2562858,7.66372089 L75.5416445,7.66372089 C75.607769,7.66372089 75.6627825,7.71245506 75.6627825,7.78090192 L75.6627825,8.26796978 C75.6627825,8.33614286 75.607769,8.37857991 75.5416445,8.37857991 Z M69.6996517,12.0922328 C68.7178111,12.0922328 67.8720134,11.6607438 67.8720134,10.3468379 L67.8720134,7.78090192 C67.8720134,7.71245506 67.9275689,7.66372089 67.9947774,7.66372089 L68.5977571,7.66372089 C68.6655076,7.66372089 68.7199791,7.71245506 68.7199791,7.78090192 L68.7199791,10.3468379 C68.7199791,11.0501978 69.0416586,11.3833971 69.6996517,11.3833971 C70.3592709,11.3833971 70.6804084,11.0501978 70.6804084,10.3468379 L70.6804084,7.78090192 C70.6804084,7.71245506 70.7348799,7.66372089 70.8020884,7.66372089 L71.4061521,7.66372089 C71.4739026,7.66372089 71.5289161,7.71245506 71.5289161,7.78090192 L71.5289161,10.3468379 C71.5289161,11.6607438 70.6825764,12.0922328 69.6996517,12.0922328 Z M64.8110444,10.8287038 C64.8110444,11.3456145 64.8305566,11.3593038 65.2920732,11.3593038 L66.8373273,11.3593038 C66.9045359,11.3593038 66.9595493,11.4148827 66.9595493,11.4825082 L66.9595493,11.8762145 C66.9595493,11.9632789 66.928655,11.9942169 66.8373273,12.0059898 C66.6419348,12.0372015 66.2443747,12.0922328 65.518631,12.0922328 C64.5056251,12.0922328 63.9684988,12.0993513 63.9684988,10.8287038 L63.9684988,8.87796821 C63.9684988,7.60759447 64.5056251,7.61498673 65.518631,7.61498673 C66.2443747,7.61498673 66.6419348,7.67056558 66.8373273,7.7006822 C66.928655,7.71245506 66.9595493,7.74394061 66.9595493,7.83073123 L66.9595493,8.22443758 C66.9595493,8.29178929 66.9045359,8.34818951 66.8373273,8.34818951 L65.2920732,8.34818951 C64.8305566,8.34818951 64.8110444,8.36215267 64.8110444,8.87796821 L64.8110444,9.44333929 L66.7641568,9.44333929 C66.8313653,9.44333929 66.8863787,9.49946571 66.8863787,9.56626985 L66.8863787,10.0114482 C66.8863787,10.0785262 66.8313653,10.134105 66.7641568,10.134105 L64.8110444,10.134105 L64.8110444,10.8287038 Z M62.195332,9.00801725 C62.195332,8.54559025 61.8400482,8.34818951 61.2297514,8.34818951 C61.1012964,8.34818951 60.546013,8.36050994 60.4367992,8.37283038 L60.4367992,9.70973447 C60.5338179,9.71603158 61.1248736,9.72835202 61.2297514,9.72835202 C61.8576633,9.72835202 62.195332,9.60596903 62.195332,9.06386989 L62.195332,9.00801725 Z M63.1110481,12.0434987 L62.3657923,12.0434987 C62.2991258,12.0434987 62.2741936,11.9808013 62.2438413,11.9200205 L61.3647104,10.4248673 L61.2297514,10.4248673 C61.0704021,10.4248673 60.5771783,10.4073449 60.4367992,10.4002264 L60.4367992,11.9200205 C60.4367992,11.9873722 60.3877478,12.0434987 60.3205393,12.0434987 L59.7102425,12.0434987 C59.643576,12.0434987 59.5885625,11.9873722 59.5885625,11.9200205 L59.5885625,7.8794654 C59.5885625,7.75571347 59.6609201,7.71245506 59.7836841,7.69465887 C60.1012986,7.64537713 60.7836819,7.61498673 61.2297514,7.61498673 C62.1693158,7.61498673 63.0373356,7.95420937 63.0373356,9.00801725 L63.0373356,9.06386989 C63.0373356,9.71630537 62.71403,10.0738718 62.2137601,10.2701774 L63.1712106,11.9200205 C63.1839477,11.9386381 63.1839477,11.9561605 63.1839477,11.9698498 C63.1839477,12.0120131 63.1595575,12.0434987 63.1110481,12.0434987 Z M51.2536212,9.53806974 C51.2536212,8.72437346 50.7666304,8.36050994 50.1685287,8.36050994 C49.570427,8.36050994 49.0834362,8.72437346 49.0834362,9.53806974 L49.0834362,10.168876 C49.0834362,10.9828461 49.570427,11.346162 50.1685287,11.346162 C50.7666304,11.346162 51.2536212,10.9828461 51.2536212,10.168876 L51.2536212,9.53806974 Z M50.1685287,12.0922328 C49.1617558,12.0922328 48.2295085,11.525219 48.2295085,10.168876 L48.2295085,9.53806974 C48.2295085,8.18200053 49.1617558,7.61498673 50.1685287,7.61498673 C51.1753016,7.61498673 52.1072779,8.18200053 52.1072779,9.53806974 L52.1072779,10.168876 C52.1072779,11.525219 51.1753016,12.0922328 50.1685287,12.0922328 Z M45.8547169,12.0952445 C45.3159647,12.0952445 44.7685404,12.0013354 44.4753161,11.9331623 C44.4143407,11.9208419 44.3593272,11.8784048 44.3593272,11.8105055 L44.3593272,11.3664223 C44.3593272,11.2990706 44.4143407,11.2489675 44.4753161,11.2489675 L44.4875112,11.2489675 C44.7314131,11.2799055 45.3026856,11.360399 45.866912,11.360399 C46.4105423,11.360399 46.5750406,11.1640934 46.5750406,10.806527 C46.5750406,10.3441 45.484257,10.0883825 44.9511959,9.8660671 C44.4192187,9.64457306 44.2314142,9.21938116 44.2314142,8.78843972 C44.2314142,8.10972064 44.7723345,7.61690324 45.9070203,7.61690324 C46.4888619,7.61690324 47.0213811,7.72860852 47.2281557,7.77871162 C47.2896732,7.79075827 47.3376406,7.83401668 47.3376406,7.89534507 L47.3376406,8.35174874 C47.3376406,8.41280334 47.2953642,8.46263266 47.2346597,8.46263266 L47.2224647,8.46263266 C46.8189425,8.42594514 46.4013282,8.35065359 45.8698931,8.35065359 C45.4194875,8.35065359 45.0796509,8.51109304 45.0796509,8.78843972 C45.0796509,8.99131622 45.3094607,9.17831304 45.5793788,9.28645908 C45.8503809,9.39433134 46.2067487,9.53423672 46.6121679,9.69905676 C47.1276139,9.90932552 47.4606755,10.2151461 47.4606755,10.806527 C47.4606755,11.4288458 47.0763945,12.0952445 45.8547169,12.0952445 Z M56.5381626,12.0434987 L55.9208198,12.0434987 C55.7742077,12.0434987 55.6457526,12.0434987 55.5498179,11.8217308 L53.8942659,9.02033768 C53.8766508,8.98365017 53.8576806,8.97023458 53.8397945,8.97023458 C53.8221794,8.97023458 53.8089003,8.98365017 53.8089003,9.02033768 L53.8089003,11.9200205 C53.8089003,11.9873722 53.7598489,12.0434987 53.6926403,12.0434987 L53.1750263,12.0434987 C53.1067338,12.0434987 53.0530753,11.9873722 53.0530753,11.9200205 L53.0530753,7.91012959 C53.0530753,7.77433102 53.1617472,7.66372089 53.2961642,7.66372089 L53.9555124,7.66372089 C54.0836964,7.66372089 54.1503629,7.7006822 54.2246175,7.861943 L55.945752,10.8287038 C55.9574051,10.8588204 55.9755622,10.8782593 55.9945324,10.8782593 C56.0067275,10.8782593 56.0240716,10.8588204 56.0240716,10.8224067 L56.0240716,7.78090192 C56.0240716,7.71245506 56.072852,7.66372089 56.1406025,7.66372089 L56.6655336,7.66372089 C56.7327422,7.66372089 56.7820645,7.71245506 56.7820645,7.78090192 L56.7820645,11.7965424 C56.7820645,11.9326147 56.6720377,12.0434987 56.5381626,12.0434987 Z M43.1327716,12.0434987 L42.5162418,12.0434987 C42.4617704,12.0434987 42.419494,11.9808013 42.419494,11.9200205 L42.419494,9.25415216 C42.419494,9.21116753 42.41299,9.19282378 42.3997109,9.19282378 C42.3951038,9.19282378 42.3826377,9.21116753 42.3696296,9.22951129 L41.3842659,11.4340478 C41.3482226,11.5011257 41.269361,11.5391822 41.1902284,11.5391822 L40.8728849,11.5391822 C40.7934813,11.5391822 40.7140777,11.5011257 40.6783054,11.4340478 L39.6864376,9.22951129 C39.6737005,9.21116753 39.6609634,9.19282378 39.6558144,9.19282378 C39.6436193,9.19282378 39.6371152,9.21116753 39.6371152,9.25415216 L39.6371152,11.9200205 C39.6371152,11.9808013 39.5942969,12.0434987 39.5392835,12.0434987 L38.9235666,12.0434987 C38.8682822,12.0434987 38.8189598,12.0120131 38.8189598,11.9509585 L38.8189598,7.91012959 C38.8189598,7.77433102 38.9292577,7.66372089 39.0634037,7.66372089 L39.5639447,7.66372089 C39.6609634,7.66372089 39.7468711,7.72504928 39.7896894,7.81156611 L40.9606896,10.2200743 C40.9907708,10.2753793 41.0035079,10.3063173 41.0289821,10.3063173 C41.0528303,10.3063173 41.0650254,10.2753793 41.0959197,10.2200743 L42.2661068,7.81156611 C42.3089252,7.72504928 42.3951038,7.66372089 42.4921226,7.66372089 L42.9929345,7.66372089 C43.1270806,7.66372089 43.2368364,7.77433102 43.2368364,7.91012959 L43.2368364,11.9509585 C43.2368364,12.0120131 43.187785,12.0434987 43.1327716,12.0434987 Z M37.0195057,9.53806974 C37.0195057,8.72437346 36.5330569,8.36050994 35.9346842,8.36050994 C35.3368535,8.36050994 34.8498627,8.72437346 34.8498627,9.53806974 L34.8498627,10.168876 C34.8498627,10.9828461 35.3368535,11.346162 35.9346842,11.346162 C36.5330569,11.346162 37.0195057,10.9828461 37.0195057,10.168876 L37.0195057,9.53806974 Z M35.9346842,12.0922328 C34.9279113,12.0922328 33.995935,11.525219 33.995935,10.168876 L33.995935,9.53806974 C33.995935,8.18200053 34.9279113,7.61498673 35.9346842,7.61498673 C36.9419991,7.61498673 37.8745174,8.18200053 37.8745174,9.53806974 L37.8745174,10.168876 C37.8745174,11.525219 36.9419991,12.0922328 35.9346842,12.0922328 Z M32.9103005,12.0434987 L32.3067788,12.0434987 C32.2387573,12.0434987 32.1834728,11.9873722 32.1834728,11.9200205 L32.1834728,10.134105 L30.2504147,10.134105 L30.2504147,11.9200205 C30.2504147,11.9873722 30.1956723,12.0434987 30.1295477,12.0434987 L29.524942,12.0434987 C29.4571915,12.0434987 29.402449,11.9873722 29.402449,11.9200205 L29.402449,7.78090192 C29.402449,7.71245506 29.4571915,7.66372089 29.524942,7.66372089 L30.1295477,7.66372089 C30.1956723,7.66372089 30.2504147,7.71245506 30.2504147,7.78090192 L30.2504147,9.3820109 L32.1834728,9.3820109 L32.1834728,7.78090192 C32.1834728,7.71245506 32.2387573,7.66372089 32.3067788,7.66372089 L32.9103005,7.66372089 C32.976696,7.66372089 33.0319805,7.71245506 33.0319805,7.78090192 L33.0319805,11.9200205 C33.0319805,11.9873722 32.976696,12.0434987 32.9103005,12.0434987 Z M28.507058,8.37857991 L27.2894455,8.37857991 L27.2894455,11.9200205 C27.2894455,11.9873722 27.2347031,12.0434987 27.1666815,12.0434987 L26.5637018,12.0434987 C26.4964933,12.0434987 26.4417508,11.9873722 26.4417508,11.9200205 L26.4417508,8.37857991 L25.2227833,8.37857991 C25.1558458,8.37857991 25.1005613,8.33614286 25.1005613,8.26796978 L25.1005613,7.78090192 C25.1005613,7.71245506 25.1558458,7.66372089 25.2227833,7.66372089 L28.507058,7.66372089 C28.5742666,7.66372089 28.62928,7.71245506 28.62928,7.78090192 L28.62928,8.26796978 C28.62928,8.33614286 28.5742666,8.37857991 28.507058,8.37857991 Z" id="path2466" transform="translate(56.432065, 9.855115) rotate(-360.000000) translate(-56.432065, -9.855115) "></path>
            <path d="M9.66862069,13.1804455 C9.49413793,13.0853368 9.43182266,12.8635977 9.52394089,12.6891412 C9.61660099,12.5103368 9.83714286,12.4467499 10.0116256,12.5402281 C10.1861084,12.6369673 10.2500493,12.8565325 10.1568473,13.0342499 C10.0929064,13.1549021 9.96827586,13.2244673 9.83985222,13.2244673 C9.78187192,13.2244673 9.72280788,13.2103368 9.66862069,13.1804455 M10.6347783,13.1652281 C10.4787192,13.0815325 10.4234483,12.8864238 10.5052709,12.7288151 C10.5876355,12.5722934 10.7810837,12.5135977 10.9355172,12.5994673 C11.0937438,12.6847934 11.1490148,12.8793586 11.0666502,13.0364238 C11.0108374,13.143489 10.9013793,13.205989 10.7875862,13.205989 C10.7361084,13.205989 10.6835468,13.1924021 10.6347783,13.1652281 M8.7517734,12.9054455 C8.55453202,12.7972934 8.47975369,12.5472934 8.58812808,12.3489238 C8.69541872,12.1494673 8.94142857,12.0717499 9.14137931,12.1804455 C9.33916256,12.2885977 9.41123153,12.5385977 9.30502463,12.7369673 C9.23187192,12.8760977 9.09098522,12.9554455 8.94522167,12.9554455 C8.88019704,12.9554455 8.8135468,12.9391412 8.7517734,12.9054455 M11.5619212,12.8597934 C11.4253695,12.7831629 11.3728079,12.6097934 11.4459606,12.4739238 C11.5191133,12.3369673 11.6925123,12.2864238 11.8241872,12.3614238 C11.9629064,12.4358803 12.0127586,12.607076 11.9379803,12.743489 C11.88867,12.8391412 11.791133,12.8929455 11.6908867,12.8929455 C11.6469951,12.8929455 11.6025616,12.882076 11.5619212,12.8597934 M8.02458128,12.2837064 C7.84738916,12.1858803 7.78236453,11.9690325 7.87773399,11.7891412 C7.97310345,11.6141412 8.18768473,11.5483803 8.36270936,11.643489 C8.54044335,11.7385977 8.60492611,11.9603368 8.51064039,12.1347934 C8.44615764,12.257076 8.32098522,12.3277281 8.19310345,12.3277281 C8.13566502,12.3277281 8.07768473,12.3135977 8.02458128,12.2837064 M12.3595567,12.2793586 C12.2408867,12.2135977 12.1980788,12.0674021 12.2598522,11.9505542 C12.3227094,11.8337064 12.4673892,11.7907716 12.5871429,11.8510977 C12.7025616,11.9174021 12.7480788,12.0635977 12.6846798,12.1815325 C12.6402463,12.2625108 12.5573399,12.3092499 12.4728079,12.3092499 C12.434335,12.3092499 12.3958621,12.2994673 12.3595567,12.2793586 M12.9491133,11.4858803 C12.8559113,11.430989 12.8174384,11.3054455 12.8710837,11.2097934 C12.9231034,11.1114238 13.0450246,11.0760977 13.1393103,11.1282716 C13.2373892,11.180989 13.2736946,11.3016412 13.2205911,11.4000108 C13.1837438,11.469576 13.1143842,11.5081629 13.0417734,11.5081629 C13.0108867,11.5081629 12.9789163,11.5010977 12.9491133,11.4858803 M7.50546798,11.4603368 C7.35049261,11.3750108 7.29305419,11.1782716 7.37433498,11.0222934 C7.45995074,10.8668586 7.65339901,10.8065325 7.80783251,10.8924021 C7.96334975,10.9755542 8.02295567,11.1722934 7.93896552,11.3299021 C7.87990148,11.4369673 7.76935961,11.4983803 7.65610837,11.4983803 C7.60517241,11.4983803 7.55369458,11.4858803 7.50546798,11.4603368 M13.2493103,10.6174021 C13.1306404,10.5549021 13.0862069,10.4054455 13.1506897,10.2880542 C13.2113793,10.1706629 13.3598522,10.1271847 13.4720197,10.1875108 C13.5901478,10.2565325 13.6351232,10.4038151 13.5733498,10.5201194 C13.5294581,10.6010977 13.4465517,10.6467499 13.3620197,10.6467499 C13.3235468,10.6467499 13.284532,10.6369673 13.2493103,10.6174021 M7.25187192,10.5065325 C7.11748768,10.4337064 7.06763547,10.2619673 7.13970443,10.1260977 C7.21448276,9.98751075 7.38300493,9.93696727 7.51955665,10.0108803 C7.65448276,10.0853368 7.70596059,10.2592499 7.63280788,10.3940325 C7.58241379,10.4885977 7.48704433,10.5424021 7.38788177,10.5424021 C7.34182266,10.5424021 7.29522167,10.5304455 7.25187192,10.5065325 M13.2503941,9.69674988 C13.1138424,9.62066293 13.0656158,9.45109771 13.1360591,9.31142379 C13.2081281,9.17664119 13.3826108,9.12718466 13.5169951,9.19946727 C13.6530049,9.27392379 13.7017734,9.44566293 13.6280788,9.58207597 C13.5782266,9.67718466 13.483399,9.73044553 13.3836946,9.73044553 C13.3387192,9.73044553 13.2937438,9.71903249 13.2503941,9.69674988 M7.29197044,9.51740206 C7.1770936,9.45272814 7.13374384,9.30435858 7.19660099,9.18751075 C7.26054187,9.06848901 7.40630542,9.02718466 7.52064039,9.09240206 C7.63714286,9.15218466 7.68428571,9.30272814 7.61817734,9.41957597 C7.57320197,9.49946727 7.49137931,9.5462064 7.40576355,9.5462064 C7.36783251,9.5462064 7.32881773,9.53696727 7.29197044,9.51740206 M12.9604926,8.81685858 C12.8038916,8.7337064 12.7475369,8.5337064 12.8299015,8.37718466 C12.9149754,8.22174988 13.1084236,8.16305423 13.2606897,8.24674988 C13.42,8.3337064 13.4747291,8.52772814 13.3939901,8.68588032 C13.335468,8.79348901 13.225468,8.85544553 13.1116749,8.85544553 C13.0607389,8.85544553 13.0087192,8.84348901 12.9604926,8.81685858 M7.62684729,8.57935858 C7.52931034,8.52772814 7.49408867,8.40490206 7.54665025,8.3038151 C7.59866995,8.20761945 7.71896552,8.17011945 7.81812808,8.22174988 C7.91458128,8.27718466 7.9508867,8.39946727 7.89778325,8.49729336 C7.86147783,8.56468466 7.79157635,8.60327162 7.72004926,8.60327162 C7.68862069,8.60327162 7.65665025,8.59566293 7.62684729,8.57935858 M12.4039901,8.06414119 C12.2284236,7.96794553 12.1644828,7.74729336 12.2587685,7.57174988 C12.3508867,7.39511945 12.569803,7.32935858 12.7459113,7.42664119 C12.9203941,7.51794553 12.9848768,7.74240206 12.8900493,7.91740206 C12.8239409,8.03805423 12.7003941,8.1087064 12.5730542,8.1087064 C12.5161576,8.1087064 12.4581773,8.09457597 12.4039901,8.06414119 M8.18280788,7.85490206 C8.06576355,7.79294553 8.02241379,7.64403249 8.08527094,7.52718466 C8.14650246,7.40924988 8.29226601,7.36577162 8.40876847,7.43098901 C8.52472906,7.49185858 8.56862069,7.63914119 8.50630542,7.75707597 C8.46403941,7.83751075 8.381133,7.88261945 8.29551724,7.88261945 C8.25704433,7.88261945 8.21857143,7.87392379 8.18280788,7.85490206 M11.6264039,7.52555423 C11.4286207,7.41903249 11.3527586,7.16957597 11.4627586,6.96903249 C11.5700493,6.76957597 11.8171429,6.6962064 12.0160099,6.80164119 C12.2127094,6.91142379 12.2858621,7.16251075 12.180197,7.35761945 C12.1065025,7.49674988 11.9661576,7.57664119 11.820936,7.57664119 C11.7553695,7.57664119 11.6887192,7.56033684 11.6264039,7.52555423 M8.94359606,7.34674988 C8.80487685,7.2712064 8.7555665,7.10218466 8.83034483,6.96522814 C8.90078818,6.82718466 9.07147783,6.77446727 9.20694581,6.84838032 C9.34349754,6.92609771 9.3944335,7.09838032 9.32128079,7.23424988 C9.26980296,7.32718466 9.17280788,7.38098901 9.07472906,7.38098901 C9.03029557,7.38098901 8.98477833,7.37066293 8.94359606,7.34674988 M10.7561576,7.1663151 C10.5805911,7.07229336 10.5193596,6.85272814 10.6152709,6.67392379 C10.7063054,6.49892379 10.9235961,6.42935858 11.0991626,6.5288151 C11.2752709,6.62174988 11.3381281,6.84294553 11.2449261,7.01903249 C11.1788177,7.14077162 11.0552709,7.20979336 10.9273892,7.20979336 C10.8694089,7.20979336 10.8108867,7.19566293 10.7561576,7.1663151 M9.82847291,7.10979336 C9.67295567,7.02501075 9.61768473,6.82772814 9.70004926,6.67229336 C9.78512315,6.51468466 9.97857143,6.45598901 10.1340887,6.54022814 C10.2912315,6.62283684 10.3481281,6.82066293 10.2641379,6.97935858 C10.2072414,7.08696727 10.0961576,7.14674988 9.98128079,7.14674988 C9.92926108,7.14674988 9.87724138,7.13533684 9.82847291,7.10979336" id="path2488" transform="translate(10.384542, 9.853810) scale(-1, 1) rotate(-180.000000) translate(-10.384542, -9.853810) "></path>
            <path d="M9.82738916,14.1770677 C9.7553202,13.9325025 9.89349754,13.6776112 10.1357143,13.6042417 C10.377931,13.531959 10.6309852,13.6738069 10.7025123,13.9156547 C10.7751232,14.1602199 10.6364039,14.4183721 10.3952709,14.4890243 C10.3513793,14.5026112 10.3074877,14.5085895 10.2641379,14.5085895 C10.0658128,14.5085895 9.8864532,14.3776112 9.82738916,14.1770677 M11.0503941,14.0281547 C10.9696552,13.745546 11.1235468,13.4531547 11.4058621,13.369459 C11.6838424,13.2863069 11.9748276,13.4460895 12.0555665,13.7254373 C12.1400985,14.009133 11.9807882,14.3047851 11.7011823,14.3879373 C11.6518719,14.4020677 11.6025616,14.409133 11.5537931,14.409133 C11.3262069,14.409133 11.1165025,14.2585895 11.0503941,14.0281547 M8.59950739,13.920546 C8.53665025,13.7026112 8.66073892,13.4754373 8.87586207,13.4113069 C9.09044335,13.3471764 9.31748768,13.4700025 9.37980296,13.6890243 C9.44103448,13.9053286 9.31748768,14.1335895 9.10453202,14.1977199 C9.06660099,14.2085895 9.02866995,14.2140243 8.99128079,14.2140243 C8.81463054,14.2140243 8.65261084,14.0977199 8.59950739,13.920546 M12.2885714,13.445546 C12.2165025,13.2015243 12.3563054,12.945546 12.5979803,12.8732634 C12.840197,12.8009808 13.0937931,12.9433721 13.1647783,13.1868504 C13.2368473,13.4308721 13.09867,13.6873938 12.8564532,13.7596764 C12.8136453,13.7727199 12.7708374,13.7786982 12.7280296,13.7786982 C12.5297044,13.7786982 12.3481773,13.6460895 12.2885714,13.445546 M7.54394089,13.2661982 C7.49408867,13.0939156 7.58945813,12.9161982 7.76014778,12.8651112 C7.92921182,12.8151112 8.10694581,12.9140243 8.1573399,13.084133 C8.20665025,13.2547851 8.1091133,13.434133 7.93950739,13.4852199 C7.90970443,13.494459 7.87935961,13.4988069 7.84955665,13.4988069 C7.71083744,13.4988069 7.58403941,13.406959 7.54394089,13.2661982 M13.280197,12.531959 C13.2157143,12.3118504 13.3403448,12.0863069 13.5543842,12.0221764 C13.7705911,11.9585895 13.9943842,12.0846764 14.058867,12.3015243 C14.1233498,12.5167417 14.0003448,12.7450025 13.7835961,12.808046 C13.745665,12.819459 13.7071921,12.8248938 13.6692611,12.8248938 C13.4953202,12.8248938 13.3338424,12.709133 13.280197,12.531959 M6.70891626,12.296633 C6.66773399,12.1596764 6.74793103,12.0134808 6.88448276,11.9738069 C7.02157635,11.933046 7.1635468,12.0118504 7.20527094,12.1498938 C7.24753695,12.2868504 7.16679803,12.4325025 7.03078818,12.4748938 C7.00748768,12.4814156 6.98364532,12.4846764 6.95980296,12.4846764 C6.84655172,12.4846764 6.74251232,12.4118504 6.70891626,12.296633 M13.9851724,11.3564156 C13.9326108,11.181959 14.033399,11.0036982 14.2013793,10.9536982 C14.372069,10.9031547 14.5487192,11.0009808 14.5985714,11.1727199 C14.6484236,11.344459 14.5519704,11.5232634 14.3829064,11.5727199 C14.3525616,11.581959 14.3216749,11.5863069 14.29133,11.5863069 C14.1526108,11.5863069 14.0247291,11.4950025 13.9851724,11.3564156 M6.21743842,11.0928286 C6.18763547,10.9884808 6.24399015,10.8786982 6.34694581,10.8488069 C6.45044335,10.8183721 6.55719212,10.8786982 6.58753695,10.981959 C6.6173399,11.0852199 6.55935961,11.1933721 6.45586207,11.2248938 C6.43743842,11.2297851 6.41955665,11.2325025 6.40167488,11.2325025 C6.3182266,11.2325025 6.24182266,11.1776112 6.21743842,11.0928286 M14.2842857,10.0488069 C14.2431034,9.91130687 14.321133,9.76402427 14.4598522,9.72435035 C14.5974877,9.68304601 14.7405419,9.76293731 14.7811823,9.90206774 C14.8207389,10.0384808 14.7437931,10.1846764 14.6056158,10.2265243 C14.5817734,10.233046 14.5573892,10.2368504 14.5340887,10.2368504 C14.4208374,10.2368504 14.3157143,10.1629373 14.2842857,10.0488069 M5.98551724,9.8107634 C5.94433498,9.6732634 6.02507389,9.52869818 6.16162562,9.48739383 C6.29817734,9.44608948 6.4417734,9.52380687 6.48241379,9.66348079 C6.52359606,9.80152427 6.4455665,9.94663296 6.30793103,9.98848079 C6.28408867,9.99608948 6.26024631,9.99880687 6.23640394,9.99880687 C6.12423645,9.99880687 6.02073892,9.92380687 5.98551724,9.8107634 M14.1791626,8.72869818 C14.1509852,8.62598079 14.2078818,8.5156547 14.3092118,8.48685035 C14.4132512,8.45641557 14.5194581,8.51511122 14.5487192,8.61945905 C14.5801478,8.72217644 14.5216256,8.83195905 14.41867,8.86239383 C14.40133,8.86728514 14.3834483,8.86945905 14.3661084,8.86945905 C14.283202,8.86945905 14.2040887,8.81402427 14.1791626,8.72869818 M6.17029557,8.53793731 C6.12261084,8.36728514 6.21418719,8.18685035 6.38650246,8.13685035 C6.55394089,8.08521992 6.73275862,8.18521992 6.78261084,8.35750253 C6.83192118,8.5281547 6.73438424,8.70750253 6.56640394,8.75478514 C6.53497537,8.76456774 6.5035468,8.76891557 6.47211823,8.76891557 C6.33448276,8.76891557 6.20876847,8.6781547 6.17029557,8.53793731 M13.5619704,7.56293731 C13.5218719,7.42380687 13.6004433,7.2781547 13.7353695,7.23902427 C13.8746305,7.19771992 14.0187685,7.27761122 14.058867,7.41511122 C14.0984236,7.55206774 14.0203941,7.69935035 13.8833005,7.7406547 C13.8594581,7.74771992 13.8350739,7.75098079 13.8106897,7.75098079 C13.6985222,7.75098079 13.5950246,7.67706774 13.5619704,7.56293731 M6.70783251,7.41130687 C6.64389163,7.19445905 6.76581281,6.96728514 6.9820197,6.90206774 C7.19931034,6.83739383 7.42256158,6.96239383 7.48758621,7.17978514 C7.55098522,7.39663296 7.42581281,7.62598079 7.21068966,7.6906547 C7.17275862,7.70206774 7.13428571,7.70750253 7.09635468,7.70750253 C6.92133005,7.70750253 6.76093596,7.5906547 6.70783251,7.41130687 M12.6099015,6.62761122 C12.561133,6.45750253 12.6597537,6.27761122 12.827734,6.22652427 C12.9962562,6.17598079 13.1734483,6.27489383 13.2227586,6.44391557 C13.2742365,6.61674166 13.1772414,6.79608948 13.0081773,6.84608948 C12.9772906,6.85532861 12.9469458,6.85967644 12.9171429,6.85967644 C12.7784236,6.85967644 12.6510837,6.76728514 12.6099015,6.62761122 M7.60300493,6.5232634 C7.53256158,6.28141557 7.66857143,6.02489383 7.91187192,5.95206774 C8.15463054,5.88141557 8.40714286,6.02163296 8.47975369,6.26511122 C8.5491133,6.50750253 8.41147783,6.76619818 8.16817734,6.83739383 C8.12482759,6.85043731 8.08147783,6.85641557 8.03921182,6.85641557 C7.84142857,6.85641557 7.66098522,6.72598079 7.60300493,6.5232634 M8.71059113,5.98413296 C8.63039409,5.69989383 8.7864532,5.40804601 9.06660099,5.32435035 C9.34458128,5.24337209 9.63827586,5.40478514 9.71738916,5.68358948 C9.79921182,5.96511122 9.64152709,6.26021992 9.36137931,6.34337209 C9.31206897,6.35804601 9.26221675,6.36456774 9.21344828,6.36456774 C8.98586207,6.36456774 8.77669951,6.2156547 8.71059113,5.98413296 M11.3868966,6.0232634 C11.3240394,5.80532861 11.4492118,5.57706774 11.6627094,5.51402427 C11.8794581,5.44989383 12.1037931,5.57380687 12.1671921,5.79228514 C12.2305911,6.00750253 12.10867,6.23630687 11.8924631,6.29989383 C11.8539901,6.31185035 11.8149754,6.31728514 11.7765025,6.31728514 C11.600936,6.31728514 11.4383744,6.20098079 11.3868966,6.0232634 M10.0631034,5.79337209 C9.9926601,5.55098079 10.1319212,5.29663296 10.3735961,5.2232634 C10.6163547,5.14989383 10.8704926,5.2906547 10.9393103,5.53358948 C11.0097537,5.77869818 10.8737438,6.03521992 10.6315271,6.10695905 C10.5876355,6.11945905 10.5442857,6.12598079 10.5014778,6.12598079 C10.3036946,6.12598079 10.1221675,5.99554601 10.0631034,5.79337209" id="path2510" transform="translate(10.383143, 9.856197) scale(-1, 1) rotate(-180.000000) translate(-10.383143, -9.856197) "></path>
            <path d="M10.7046798,15.7594493 C10.5085222,15.5485798 10.517734,15.2154276 10.7279803,15.0159711 C10.9371429,14.8165145 11.2671429,14.8262971 11.4627586,15.0377102 C11.66,15.2502102 11.6491626,15.5817319 11.4405419,15.7817319 C11.3402956,15.8768406 11.2124138,15.9241232 11.0850739,15.9241232 C10.9463547,15.9241232 10.8076355,15.8686884 10.7046798,15.7594493 M9.05630542,15.630645 C8.90133005,15.4632537 8.90891626,15.2018406 9.07472906,15.0442319 C9.23783251,14.8882537 9.49793103,14.8969493 9.65399015,15.0627102 C9.8073399,15.2284711 9.80029557,15.492058 9.63610837,15.6480363 C9.5564532,15.7235798 9.45566502,15.7599928 9.35487685,15.7599928 C9.24596059,15.7599928 9.13704433,15.7165145 9.05630542,15.630645 M12.32,15.3159711 C12.0983744,15.0784711 12.1081281,14.7051015 12.3433005,14.479558 C12.5784729,14.2551015 12.9518227,14.267058 13.1718227,14.5034711 C13.3929064,14.7415145 13.3831527,15.117058 13.1479803,15.3398841 C13.0336453,15.4485798 12.8889655,15.5023841 12.7453695,15.5023841 C12.5898522,15.5023841 12.4354187,15.4393406 12.32,15.3159711 M7.48325123,14.9877102 C7.35807882,14.8529276 7.36403941,14.6426015 7.49679803,14.5137971 C7.63172414,14.3877102 7.8408867,14.3936884 7.96660099,14.5284711 C8.09231527,14.6627102 8.08527094,14.8746667 7.95305419,15.0012971 C7.88802956,15.0627102 7.8062069,15.093145 7.72438424,15.093145 C7.63660099,15.093145 7.54881773,15.0572754 7.48325123,14.9877102 M13.686601,14.3898841 C13.4302956,14.1176015 13.4405911,13.6882537 13.7131527,13.429558 C13.9835468,13.1703189 14.4105419,13.1844493 14.6641379,13.4551015 C14.9204433,13.7322754 14.9079803,14.1621667 14.6375862,14.4203189 C14.5075369,14.5442319 14.3417241,14.604558 14.1769951,14.604558 C13.9970936,14.604558 13.8188177,14.5328189 13.686601,14.3898841 M6.17679803,13.8589058 C6.08197044,13.7578189 6.08684729,13.6007537 6.18655172,13.505645 C6.2873399,13.4094493 6.44339901,13.4154276 6.53551724,13.5154276 C6.62980296,13.6159711 6.62546798,13.7741232 6.52630542,13.8692319 C6.47753695,13.9143406 6.41630542,13.9366232 6.35507389,13.9366232 C6.29004926,13.9366232 6.22502463,13.9105363 6.17679803,13.8589058 M14.8088177,12.9464058 C14.5866502,12.7094493 14.5969458,12.3344493 14.8337438,12.1099928 C15.0694581,11.8849928 15.4400985,11.8991232 15.6606404,12.1355363 C15.8833498,12.3735798 15.8730542,12.7458624 15.6351724,12.9724928 C15.5235468,13.079558 15.3804926,13.1328189 15.2363547,13.1328189 C15.0802956,13.1328189 14.9242365,13.0703189 14.8088177,12.9464058 M5.13965517,12.4741232 C5.01285714,12.3393406 5.01990148,12.1284711 5.15482759,12.0002102 C5.28650246,11.8741232 5.4962069,11.879558 5.62300493,12.0127102 C5.7470936,12.1480363 5.74221675,12.3594493 5.60837438,12.4866232 C5.5444335,12.5480363 5.46261084,12.5784711 5.38133005,12.5784711 C5.29300493,12.5784711 5.20522167,12.543145 5.13965517,12.4741232 M15.4390148,11.255645 C15.2406897,11.0442319 15.2509852,10.7110798 15.4612315,10.5127102 C15.6698522,10.3116232 16.0003941,10.3241232 16.1965517,10.5349928 C16.3954187,10.7453189 16.3845813,11.0784711 16.1748768,11.2784711 C16.0740887,11.3735798 15.9451232,11.4208624 15.8172414,11.4208624 C15.679064,11.4208624 15.5408867,11.3659711 15.4390148,11.255645 M4.598867,10.8480363 C4.44660099,10.6801015 4.45039409,10.4208624 4.61674877,10.2637971 C4.77985222,10.1061884 5.04103448,10.1148841 5.19600985,10.279558 C5.35152709,10.4453189 5.34231527,10.7099928 5.17921182,10.8659711 C5.09955665,10.9415145 4.9982266,10.9790145 4.89689655,10.9790145 C4.7879803,10.9790145 4.67906404,10.9349928 4.598867,10.8480363 M15.5696059,9.43118845 C15.4151724,9.2648841 15.4243842,9.00292758 15.5880296,8.84694932 C15.7549261,8.68879714 16.0117734,8.69749279 16.1678325,8.86434062 C16.322266,9.03010149 16.3168473,9.29151453 16.1494089,9.44912323 C16.0708374,9.52412323 15.9700493,9.56107975 15.8687192,9.56107975 C15.759803,9.56107975 15.6503448,9.51760149 15.5696059,9.43118845 M4.56906404,9.17847106 C4.3729064,8.96814497 4.3826601,8.63336236 4.59182266,8.43444932 C4.80206897,8.23444932 5.13044335,8.2447754 5.32768473,8.45618845 C5.52492611,8.66651453 5.51517241,9.00021019 5.30546798,9.20129714 C5.20522167,9.29749279 5.07788177,9.34423193 4.95,9.34423193 C4.81128079,9.34423193 4.6720197,9.28825366 4.56906404,9.17847106 M15.1436946,7.69857975 C15.0179803,7.56434062 15.0239409,7.35129714 15.1572414,7.22303627 C15.2927094,7.09640584 15.5024138,7.10347106 15.6281281,7.23934062 C15.7527586,7.37357975 15.7478818,7.58607975 15.6140394,7.71379714 C15.5495567,7.77466671 15.467734,7.80455801 15.3859113,7.80455801 C15.2981281,7.80455801 15.2092611,7.76868845 15.1436946,7.69857975 M5.10660099,7.57575366 C4.88497537,7.3398841 4.8920197,6.9648841 5.12881773,6.73934062 C5.36561576,6.51651453 5.7373399,6.52847106 5.9573399,6.7648841 C6.17842365,7.00184062 6.16812808,7.37847106 5.93349754,7.60075366 C5.82024631,7.70944932 5.67665025,7.76216671 5.53413793,7.76216671 C5.37807882,7.76216671 5.2220197,7.69857975 5.10660099,7.57575366 M6.10093596,6.25564497 C5.84679803,5.97901453 5.85871921,5.55292758 6.13019704,5.29260149 C6.40059113,5.03499279 6.82704433,5.04694932 7.08118227,5.32140584 C7.33694581,5.59531888 7.32394089,6.02466671 7.05300493,6.28390584 C6.92241379,6.40781888 6.75605911,6.46923193 6.59078818,6.4697754 C6.41197044,6.4697754 6.23315271,6.39749279 6.10093596,6.25564497 M14.2295567,6.19586236 C14.1363547,6.0947754 14.1412315,5.93662323 14.2403941,5.84205801 C14.3406404,5.74857975 14.4961576,5.75184062 14.5893596,5.85455801 C14.6836453,5.95401453 14.6798522,6.11271019 14.5785222,6.20618845 C14.5319212,6.25184062 14.4706897,6.27466671 14.41,6.27466671 C14.3433498,6.27466671 14.2777833,6.24803627 14.2295567,6.19586236 M7.59433498,5.20618845 C7.3737931,4.97194932 7.38408867,4.59694932 7.6208867,4.37194932 C7.85605911,4.14640584 8.22724138,4.15890584 8.44724138,4.39586236 C8.66832512,4.63553627 8.66019704,5.00836236 8.42231527,5.23281888 C8.31014778,5.3398841 8.16546798,5.39314497 8.02187192,5.39314497 C8.02078818,5.39314497 8.02024631,5.39314497 8.01970443,5.39314497 C7.86418719,5.39314497 7.70921182,5.33010149 7.59433498,5.20618845 M12.8000985,5.18390584 C12.6738424,5.04912323 12.679803,4.83662323 12.8131034,4.70999279 C12.9480296,4.58281888 13.1582759,4.58934062 13.2829064,4.72412323 C13.4086207,4.85781888 13.4026601,5.0697754 13.2688177,5.19749279 C13.2048768,5.25890584 13.1230542,5.28934062 13.0406897,5.28934062 C12.9529064,5.28934062 12.8651232,5.25401453 12.8000985,5.18390584 M9.30231527,4.67466671 C9.10507389,4.46434062 9.11482759,4.12901453 9.32453202,3.9322754 C9.53640394,3.73118845 9.86369458,3.74097106 10.0603941,3.95292758 C10.2581773,4.16325366 10.2500493,4.49749279 10.039803,4.69586236 C9.93901478,4.79260149 9.811133,4.83934062 9.68270936,4.83934062 C9.54344828,4.83934062 9.40472906,4.78390584 9.30231527,4.67466671 M11.1127094,4.64857975 C10.9582759,4.48444932 10.9664039,4.22031888 11.1305911,4.06379714 C11.2958621,3.90673193 11.5554187,3.91651453 11.7103941,4.08281888 C11.8653695,4.24694932 11.8594089,4.50999279 11.6935961,4.66705801 C11.6139409,4.74260149 11.5131527,4.77955801 11.4123645,4.77955801 C11.3029064,4.77955801 11.1939901,4.73553627 11.1127094,4.64857975" id="path2532" transform="translate(10.383687, 9.855812) scale(-1, 1) rotate(-180.000000) translate(-10.383687, -9.855812) "></path>
            <path d="M11.1414286,17.6198705 C10.8970443,17.5709574 10.7388177,17.3334574 10.7875862,17.0850879 C10.8363547,16.8394357 11.0742365,16.6796531 11.3180788,16.7291096 C11.5619212,16.7785661 11.7196059,17.0176966 11.6708374,17.2633487 C11.6274877,17.4812835 11.4405419,17.6291096 11.2308374,17.6291096 C11.2015764,17.6291096 11.1717734,17.6258487 11.1414286,17.6198705 M9.27522167,17.4965009 C9.08394089,17.4676966 8.95009852,17.2883487 8.97827586,17.09324 C9.00699507,16.8986748 9.18581281,16.7655226 9.37763547,16.79324 C9.57,16.8220444 9.70384236,17.0013922 9.67512315,17.1965009 C9.65019704,17.3736748 9.49955665,17.5003053 9.32724138,17.5003053 C9.30990148,17.5003053 9.29310345,17.4986748 9.27522167,17.4965009 M12.9399015,17.2361748 C12.6483744,17.1611748 12.4711823,16.8622618 12.5465025,16.5660661 C12.6207389,16.2715009 12.9187685,16.0921531 13.2102956,16.1687835 C13.5012808,16.2437835 13.677931,16.544327 13.6031527,16.8383487 C13.5397537,17.0888922 13.3181281,17.2535661 13.0753695,17.2535661 C13.0303941,17.2535661 12.9854187,17.2481313 12.9399015,17.2361748 M7.3662069,16.9242183 C7.20039409,16.8519357 7.1229064,16.657914 7.19497537,16.4888922 C7.26596059,16.3215009 7.45995074,16.2448705 7.62576355,16.3166096 C7.79157635,16.3894357 7.86906404,16.5840009 7.79753695,16.7513922 C7.74389163,16.8769357 7.62305419,16.9513922 7.49679803,16.9513922 C7.4529064,16.9513922 7.40847291,16.9426966 7.3662069,16.9242183 M14.5335468,16.4209574 C14.1764532,16.3084574 13.974335,15.9236748 14.0870443,15.5606313 C14.19867,15.1986748 14.5812315,14.9965009 14.9383251,15.1095444 C15.2975862,15.2231313 15.4969951,15.6084574 15.3853695,15.9698705 C15.2937931,16.2644357 15.0261084,16.4524792 14.7378325,16.4524792 C14.6695567,16.4524792 14.6012808,16.4421531 14.5335468,16.4209574 M5.64305419,15.9138922 C5.49133005,15.7916096 5.46477833,15.5698705 5.58507389,15.4149792 C5.70591133,15.2606313 5.92753695,15.2350879 6.07926108,15.3562835 C6.23206897,15.4785661 6.25862069,15.7013922 6.13778325,15.8562835 C6.06842365,15.9448705 5.96600985,15.9910661 5.86251232,15.9910661 C5.78610837,15.9910661 5.70862069,15.9655226 5.64305419,15.9138922 M15.8432512,15.1372618 C15.4547291,14.9921531 15.2547783,14.5584574 15.4,14.1644357 C15.5435961,13.7709574 15.975468,13.5709574 16.3623645,13.7160661 C16.7508867,13.8606313 16.9502956,14.2975879 16.8061576,14.6899792 C16.6934483,14.9975879 16.4073399,15.1845444 16.1038916,15.1845444 C16.0171921,15.1845444 15.928867,15.169327 15.8432512,15.1372618 M4.27428571,14.6280226 C4.07108374,14.482914 4.0217734,14.2003053 4.16699507,13.9937835 C4.311133,13.7894357 4.59182266,13.7410661 4.79394089,13.8861748 C4.99714286,14.031827 5.04536946,14.3155226 4.90123153,14.5198705 C4.81344828,14.645414 4.67527094,14.7122618 4.53492611,14.7122618 C4.4444335,14.7122618 4.35339901,14.6850879 4.27428571,14.6280226 M16.7541379,13.5312835 C16.3396059,13.3503053 16.1483251,12.8687835 16.3271429,12.4486748 C16.5059606,12.0301966 16.9855172,11.8372618 17.3995074,12.0171531 C17.8129557,12.1975879 18.0047783,12.6834574 17.8254187,13.1008487 C17.6926601,13.4133487 17.3924631,13.5986748 17.0776355,13.5986748 C16.9692611,13.5986748 16.8592611,13.5774792 16.7541379,13.5312835 M3.31571429,13.0437835 C3.06211823,12.8801966 2.98463054,12.5421531 3.14719212,12.2834574 C3.30812808,12.0263922 3.64517241,11.9497618 3.89931034,12.1122618 C4.15507389,12.2742183 4.22985222,12.6160661 4.06837438,12.8736748 C3.96433498,13.0394357 3.78876847,13.1296531 3.60832512,13.1296531 C3.50807882,13.1296531 3.40674877,13.1013922 3.31571429,13.0437835 M17.2645813,11.6035661 C16.8944828,11.41824 16.7422167,10.9633487 16.9253695,10.5899792 C17.1106897,10.2117183 17.5593596,10.0611748 17.9305419,10.2465009 C18.3011823,10.4312835 18.4539901,10.8845444 18.2692118,11.2606313 C18.1386207,11.5274792 17.8725616,11.681827 17.5962069,11.681827 C17.4845813,11.681827 17.37133,11.656827 17.2645813,11.6035661 M2.80852217,11.3117183 C2.48068966,11.1263922 2.36418719,10.7084574 2.54896552,10.3769357 C2.7326601,10.0470444 3.14665025,9.92802265 3.47448276,10.1144357 C3.80231527,10.2997618 3.91881773,10.719327 3.73458128,11.0503053 C3.60940887,11.2747618 3.37965517,11.4003053 3.1417734,11.4003053 C3.14068966,11.4003053 3.14014778,11.4003053 3.13906404,11.4003053 C3.02689655,11.4003053 2.91310345,11.3715009 2.80852217,11.3117183 M17.2900493,9.60084874 C16.9638424,9.41606613 16.8462562,8.99650091 17.0299507,8.66443569 C17.2147291,8.33291395 17.629803,8.21824004 17.955468,8.40356613 C18.2833005,8.58943569 18.4003448,9.00628352 18.2155665,9.33834874 C18.090936,9.56280526 17.8600985,9.68943569 17.6227586,9.68943569 C17.5100493,9.68943569 17.3957143,9.66117482 17.2900493,9.60084874 M2.83399015,9.46878352 C2.46497537,9.28454439 2.31054187,8.83128352 2.49477833,8.45410961 C2.67901478,8.07910961 3.12985222,7.92584874 3.50103448,8.1117183 C3.87167488,8.29704439 4.02339901,8.75193569 3.83916256,9.12693569 C3.70802956,9.39487048 3.44413793,9.5492183 3.16940887,9.5492183 C3.05669951,9.5492183 2.94236453,9.52313134 2.83399015,9.46878352 M3.3655665,7.69758787 C2.9526601,7.51824004 2.75975369,7.03454439 2.9391133,6.61443569 C3.11684729,6.19650091 3.5991133,6.00410961 4.0120197,6.18400091 C4.42438424,6.36443569 4.61512315,6.8492183 4.43630542,7.26769656 C4.30300493,7.57965308 4.00334975,7.76497917 3.68852217,7.76497917 C3.58068966,7.76497917 3.47123153,7.74378352 3.3655665,7.69758787 M16.8663054,7.60356613 C16.6116256,7.44106613 16.5352217,7.09976178 16.6972414,6.84378352 C16.8587192,6.58508787 17.1952217,6.51008787 17.4493596,6.67258787 C17.7034975,6.83508787 17.7809852,7.1742183 17.6189655,7.43291395 C17.5149261,7.59813134 17.3371921,7.68889221 17.1562069,7.68889221 C17.0570443,7.68889221 16.956798,7.66117482 16.8663054,7.60356613 M4.40216749,5.9992183 C4.01418719,5.85410961 3.81477833,5.41715308 3.95891626,5.02639221 C4.10359606,4.63019656 4.53546798,4.43345743 4.92182266,4.57910961 C5.31142857,4.72476178 5.51029557,5.156827 5.36561576,5.55247917 C5.25344828,5.85737048 4.9673399,6.04704439 4.66226601,6.04704439 C4.57610837,6.04704439 4.48778325,6.031827 4.40216749,5.9992183 M15.971133,5.82910961 C15.7673892,5.68400091 15.7202463,5.40030526 15.8638424,5.19541395 C16.0079803,4.98943569 16.28867,4.94160961 16.4924138,5.08617482 C16.694532,5.23128352 16.7427586,5.51443569 16.5980788,5.72150091 C16.5108374,5.84650091 16.3715764,5.91280526 16.2306897,5.91334874 C16.1407389,5.91334874 16.0497044,5.88563134 15.971133,5.82910961 M5.8262069,4.60574004 C5.46748768,4.49324004 5.26807882,4.10845743 5.38024631,3.74595743 C5.49241379,3.38128352 5.87226601,3.18128352 6.23098522,3.29541395 C6.58916256,3.40737048 6.79019704,3.79160961 6.67802956,4.15410961 C6.58753695,4.44867482 6.3182266,4.63726178 6.02832512,4.63726178 C5.96167488,4.63726178 5.89339901,4.62693569 5.8262069,4.60574004 M14.6847291,4.35900091 C14.5335468,4.2367183 14.5075369,4.01334874 14.6272906,3.86008787 C14.7481281,3.70465308 14.9697537,3.68019656 15.1220197,3.80193569 C15.2742857,3.92367482 15.3002956,4.14595743 15.1805419,4.30084874 C15.1111823,4.38943569 15.0082266,4.43563134 14.9041872,4.43563134 C14.8277833,4.43563134 14.7502956,4.41063134 14.6847291,4.35900091 M7.55586207,3.54650091 C7.26433498,3.47095743 7.08876847,3.17204439 7.16300493,2.87747917 C7.23724138,2.58019656 7.53418719,2.40410961 7.82571429,2.47910961 C8.11778325,2.55465308 8.2944335,2.85302265 8.21965517,3.1492183 C8.1573399,3.39813134 7.93463054,3.56389221 7.69187192,3.56389221 C7.64689655,3.56389221 7.60137931,3.55791395 7.55586207,3.54650091 M13.1398522,3.39813134 C12.9740394,3.32639221 12.8970936,3.131827 12.9686207,2.96443569 C13.0412315,2.79487048 13.2335961,2.71878352 13.3994089,2.79052265 C13.5657635,2.86280526 13.6432512,3.05791395 13.5717241,3.22584874 C13.5180788,3.35084874 13.3966995,3.42530526 13.2699015,3.42530526 C13.2265517,3.42530526 13.1821182,3.41660961 13.1398522,3.39813134 M9.44699507,2.9867183 C9.20369458,2.93726178 9.04546798,2.69650091 9.09423645,2.45139221 C9.14300493,2.20356613 9.3808867,2.044327 9.62418719,2.09378352 C9.86748768,2.14324004 10.026798,2.38291395 9.97748768,2.63074004 C9.93413793,2.84595743 9.74610837,2.99541395 9.5353202,2.99541395 C9.50605911,2.99541395 9.47679803,2.99269656 9.44699507,2.9867183 M11.3868966,2.92258787 C11.1961576,2.89324004 11.0623153,2.71280526 11.0904926,2.51878352 C11.11867,2.32367482 11.2985714,2.19052265 11.4893103,2.21878352 C11.6822167,2.24758787 11.8160591,2.42693569 11.7873399,2.62204439 C11.7624138,2.7992183 11.6112315,2.92584874 11.4372906,2.92584874 C11.4210345,2.92584874 11.4042365,2.92530526 11.3868966,2.92258787" id="path2554" transform="translate(10.382312, 9.856946) scale(-1, 1) rotate(-180.000000) translate(-10.382312, -9.856946) "></path>
            <path d="M9.96285714,19.288587 C9.96285714,19.0538043 10.1514286,18.8646739 10.382266,18.8646739 C10.6141872,18.8646739 10.8027586,19.0538043 10.8027586,19.288587 C10.8027586,19.523913 10.6141872,19.711413 10.382266,19.711413 C10.1514286,19.711413 9.96285714,19.523913 9.96285714,19.288587 M7.84955665,19.4059783 C7.60896552,19.3413043 7.46591133,19.0929348 7.52985222,18.8494565 C7.59487685,18.6054348 7.84305419,18.4625 8.0820197,18.5271739 C8.32315271,18.5923913 8.4662069,18.8413043 8.40226601,19.0853261 C8.34807882,19.2891304 8.16655172,19.4222826 7.9682266,19.4222826 C7.92921182,19.4222826 7.8891133,19.4168478 7.84955665,19.4059783 M12.3638916,19.0847826 C12.2994089,18.8413043 12.4424631,18.5923913 12.6825123,18.5271739 C12.9231034,18.4619565 13.1712808,18.6054348 13.2357635,18.848913 C13.2997044,19.0923913 13.1561084,19.3407609 12.9149754,19.4059783 C12.8759606,19.4168478 12.8364039,19.4217391 12.797931,19.4217391 C12.5996059,19.4217391 12.4175369,19.2891304 12.3638916,19.0847826 M5.59374384,18.5956522 C5.28162562,18.5288043 5.08221675,18.2217391 5.148867,17.9048913 C5.21497537,17.5907609 5.521133,17.3902174 5.83270936,17.4570652 C6.14482759,17.523913 6.34369458,17.8331522 6.27704433,18.1483696 C6.21960591,18.4228261 5.98118227,18.6092391 5.71512315,18.6092391 C5.67502463,18.6092391 5.63438424,18.6048913 5.59374384,18.5956522 M14.4880296,18.1483696 C14.4213793,17.8331522 14.6202463,17.523913 14.9323645,17.4570652 C15.243399,17.3902174 15.5500985,17.5907609 15.615665,17.9048913 C15.683399,18.2217391 15.4834483,18.5288043 15.1718719,18.5951087 C15.1312315,18.6043478 15.0900493,18.6086957 15.0494089,18.6086957 C14.7833498,18.6086957 14.545468,18.4228261 14.4880296,18.1483696 M3.67118227,17.2228261 C3.29024631,17.1619565 3.03014778,16.8032609 3.09083744,16.4157609 C3.15098522,16.0309783 3.50862069,15.7673913 3.88955665,15.8282609 C4.27103448,15.8891304 4.531133,16.2516304 4.47098522,16.6369565 C4.41625616,16.9858696 4.11985222,17.2315217 3.78226601,17.2315217 C3.74541872,17.2315217 3.70857143,17.2288043 3.67118227,17.2228261 M16.2946305,16.636413 C16.2350246,16.251087 16.4945813,15.888587 16.8755172,15.8277174 C17.2559113,15.7668478 17.6151724,16.0304348 17.6747783,16.4152174 C17.7360099,16.8027174 17.4742857,17.161413 17.0949754,17.2222826 C17.0581281,17.2282609 17.0207389,17.2309783 16.9844335,17.2309783 C16.6468473,17.2309783 16.3499015,16.9858696 16.2946305,16.636413 M17.6010837,14.663587 C17.5512315,14.1809783 17.900197,13.7478261 18.3765025,13.6967391 C18.8555172,13.6456522 19.2835961,13.9978261 19.3339901,14.4804348 C19.3849261,14.9657609 19.0375862,15.3961957 18.5596552,15.4472826 C18.5282266,15.4505435 18.4978818,15.4521739 18.4669951,15.4521739 C18.0280788,15.4521739 17.6487685,15.1173913 17.6010837,14.663587 M2.20541872,15.4472826 C1.72586207,15.3961957 1.38014778,14.9657609 1.43054187,14.4804348 C1.48039409,13.9978261 1.90793103,13.6456522 2.38748768,13.6972826 C2.86541872,13.7478261 3.21330049,14.1809783 3.1629064,14.663587 C3.11576355,15.1173913 2.73753695,15.4521739 2.29862069,15.4521739 C2.26773399,15.4521739 2.23684729,15.4505435 2.20541872,15.4472826 M18.4447783,12.348913 C18.4171429,11.813587 18.8240887,11.3565217 19.3518719,11.3282609 C19.8823645,11.301087 20.3353695,11.7119565 20.3630049,12.2472826 C20.3906404,12.7853261 19.982069,13.238587 19.4537438,13.2663043 C19.4364039,13.2673913 19.419064,13.2679348 19.4017241,13.2679348 C18.8956158,13.2679348 18.4718719,12.8690217 18.4447783,12.348913 M1.30970443,13.2663043 C0.782463054,13.238587 0.373349754,12.7853261 0.401527094,12.2472826 C0.429162562,11.7119565 0.88270936,11.301087 1.41211823,11.3282609 C1.94152709,11.3565217 2.34847291,11.813587 2.32083744,12.348913 C2.29374384,12.8690217 1.87054187,13.2679348 1.36172414,13.2679348 C1.34438424,13.2679348 1.32704433,13.2673913 1.30970443,13.2663043 M18.674532,9.85652174 C18.674532,9.27282609 19.1416256,8.79945652 19.7181773,8.79945652 C20.2963547,8.79945652 20.764532,9.27282609 20.764532,9.85543478 C20.764532,10.4418478 20.2963547,10.9108696 19.719803,10.9108696 C19.1416256,10.9108696 18.674532,10.4418478 18.674532,9.85652174 M0,9.85543478 C0,9.27282609 0.470344828,8.79945652 1.04635468,8.79945652 C1.62128079,8.79945652 2.08945813,9.27282609 2.08945813,9.85652174 C2.08945813,10.4418478 1.62128079,10.9108696 1.04635468,10.9108696 C0.470344828,10.9108696 0,10.4418478 0,9.85543478 M19.3518719,8.3826087 C18.8240887,8.35434783 18.4171429,7.89782609 18.4447783,7.36304348 C18.4729557,6.82445652 18.9248768,6.41793478 19.4537438,6.4451087 C19.982069,6.47336957 20.3900985,6.92608696 20.3624631,7.46467391 C20.3359113,7.98152174 19.9105419,8.38369565 19.4028079,8.38369565 C19.3860099,8.38369565 19.3692118,8.38315217 19.3518719,8.3826087 M0.402068966,7.46467391 C0.374433498,6.92608696 0.782463054,6.47336957 1.31024631,6.4451087 C1.84128079,6.4173913 2.2926601,6.82445652 2.32137931,7.36304348 C2.34847291,7.89782609 1.94152709,8.35434783 1.4126601,8.3826087 C1.3953202,8.38315217 1.37852217,8.38369565 1.36172414,8.38369565 C0.85453202,8.38369565 0.42862069,7.98152174 0.402068966,7.46467391 M18.3765025,6.01413043 C17.8996552,5.96358696 17.5512315,5.53043478 17.6010837,5.04673913 C17.6520197,4.56141304 18.082266,4.21358696 18.5591133,4.26413043 C19.0375862,4.31521739 19.3849261,4.7451087 19.3339901,5.23097826 C19.2868473,5.6826087 18.9086207,6.01902174 18.4686207,6.01902174 C18.4388177,6.01902174 18.407931,6.0173913 18.3765025,6.01413043 M1.43054187,5.23097826 C1.38014778,4.7451087 1.72640394,4.31521739 2.20541872,4.26413043 C2.68334975,4.21358696 3.11251232,4.56141304 3.1629064,5.04673913 C3.21330049,5.53043478 2.86541872,5.96358696 2.38748768,6.01413043 C2.35605911,6.0173913 2.32517241,6.01902174 2.29428571,6.01902174 C1.85428571,6.01902174 1.47714286,5.6826087 1.43054187,5.23097826 M16.8760591,3.8826087 C16.4945813,3.82119565 16.2339409,3.45978261 16.2946305,3.075 C16.3553202,2.68804348 16.7134975,2.42771739 17.0944335,2.48858696 C17.4742857,2.54945652 17.735468,2.90869565 17.6747783,3.29565217 C17.6200493,3.64347826 17.3220197,3.89130435 16.9849754,3.89130435 C16.9492118,3.89130435 16.9123645,3.88804348 16.8760591,3.8826087 M3.09137931,3.29565217 C3.03014778,2.90869565 3.29078818,2.54891304 3.67118227,2.48858696 C4.05211823,2.42771739 4.41029557,2.68804348 4.47152709,3.075 C4.531133,3.45923913 4.27103448,3.82119565 3.88955665,3.88206522 C3.85216749,3.8875 3.81586207,3.89076087 3.77955665,3.89076087 C3.44251232,3.89076087 3.14502463,3.64293478 3.09137931,3.29565217 M14.9323645,2.25434783 C14.6202463,2.1875 14.4208374,1.87717391 14.4874877,1.56358696 C14.5541379,1.24673913 14.8597537,1.04673913 15.1718719,1.11413043 C15.4834483,1.18043478 15.6828571,1.48913043 15.615665,1.80597826 C15.5582266,2.07880435 15.3181773,2.2673913 15.0515764,2.2673913 C15.0120197,2.2673913 14.9719212,2.26358696 14.9323645,2.25434783 M5.14940887,1.80543478 C5.08221675,1.48913043 5.28162562,1.18043478 5.59320197,1.11358696 C5.90477833,1.04673913 6.21093596,1.24673913 6.27704433,1.56358696 C6.34369458,1.87717391 6.14482759,2.1875 5.83270936,2.25434783 C5.79315271,2.26358696 5.75305419,2.2673913 5.71349754,2.2673913 C5.44689655,2.2673913 5.20684729,2.07880435 5.14940887,1.80543478 M12.6819704,1.18369565 C12.4424631,1.11847826 12.2994089,0.869565217 12.3628079,0.625543478 C12.4278325,0.382608696 12.675468,0.239673913 12.9149754,0.304891304 C13.1566502,0.369565217 13.2991626,0.617934783 13.2352217,0.861956522 C13.1815764,1.06521739 12.9984236,1.19945652 12.7990148,1.19945652 C12.7605419,1.19945652 12.7209852,1.19456522 12.6819704,1.18369565 M7.52985222,0.860869565 C7.46591133,0.617934783 7.60950739,0.369565217 7.84955665,0.304891304 C8.09068966,0.239673913 8.33778325,0.382608696 8.40226601,0.626086957 C8.4662069,0.869565217 8.32315271,1.11847826 8.0820197,1.18369565 C8.0435468,1.19402174 8.00453202,1.19945652 7.96605911,1.19945652 C7.76773399,1.19945652 7.58403941,1.06521739 7.52985222,0.860869565 M9.96285714,0.422282609 C9.96285714,0.197282609 10.1362562,0.014673913 10.3540887,0 L10.4109852,0 C10.6293596,0.014673913 10.8027586,0.197282609 10.8027586,0.422826087 C10.8027586,0.656521739 10.6141872,0.846195652 10.382266,0.846195652 C10.1514286,0.846195652 9.96285714,0.656521739 9.96285714,0.422282609" id="path2576" transform="translate(10.382266, 9.855707) scale(-1, 1) rotate(-180.000000) translate(-10.382266, -9.855707) "></path>
        </g>
    </g>
</svg>