<svg xmlns="http://www.w3.org/2000/svg" width="186" height="30" viewBox="0 0 186 30">
  <g fill="none">
    <polygon fill="#7E00FF" points="55.521 10.576 55.521 7.657 61.008 5.614 55.521 3.511 55.521 .651 64.92 4.446 64.92 6.782"/>
    <path fill="#000000" d="M3.6196439,25.7554801 C1.6342734,25.7554801 0,24.7627948 0,22.5440562 L0,22.4277205 C0,19.7422456 2.33507436,18.8087732 5.19679437,18.8087732 L6.53848685,18.8087732 L6.53848685,18.2821275 C6.53848685,17.1731065 6.07175063,16.5308218 4.90421345,16.5308218 C3.85231539,16.5308218 3.32775961,17.1145903 3.26924343,17.9324237 L0.350400478,17.9324237 C0.58376859,15.4803169 2.50992629,14.3127798 5.07906538,14.3127798 C7.70672065,14.3127798 9.63357497,15.4218008 9.63357497,18.1650952 L9.63357497,25.5214153 L6.65551922,25.5214153 L6.65551922,24.2375424 C6.07175063,25.0546791 5.07906538,25.7561767 3.6196439,25.7561767 L3.6196439,25.7554801 Z M6.53848685,21.8439519 L6.53848685,20.7920538 L5.31243349,20.7920538 C3.79379921,20.7920538 3.03587531,21.2016671 3.03587531,22.1936557 L3.03587531,22.3099915 C3.03587531,23.0693086 3.50261154,23.594561 4.55450959,23.594561 C5.54649822,23.594561 6.53848685,23.011489 6.53848685,21.8439519 L6.53848685,21.8439519 Z M16.5795852,25.7554801 C13.5444065,25.7554801 11.3256679,23.8871419 11.3256679,20.1504657 L11.3256679,19.9763104 C11.3256679,16.2389375 13.6614389,14.2542636 16.5802819,14.2542636 C19.0916014,14.2542636 21.1347915,15.5388331 21.3681596,18.3991599 L18.4493166,18.3991599 C18.2737681,17.3486551 17.6899995,16.6478541 16.6394947,16.6478541 C15.3549251,16.6478541 14.4207561,17.6983589 14.4207561,19.859278 L14.4207561,20.2089818 C14.4207561,22.4277205 15.2378928,23.4204057 16.6394947,23.4204057 C17.6899995,23.4204057 18.4493166,22.6610886 18.6248652,21.4350352 L21.4266757,21.4350352 C21.2511272,23.9456581 19.5583376,25.7554801 16.5809785,25.7554801 L16.5795852,25.7554801 Z M27.964466,25.7554801 C24.9285907,25.7554801 22.7098521,23.8871419 22.7098521,20.1504657 L22.7098521,19.9763104 C22.7098521,16.2389375 25.045623,14.2542636 27.964466,14.2542636 C30.4750889,14.2542636 32.518279,15.5388331 32.7516471,18.3991599 L29.8328041,18.3991599 C29.6572556,17.3486551 29.073487,16.6478541 28.0229822,16.6478541 C26.7384126,16.6478541 25.8042435,17.6983589 25.8042435,19.859278 L25.8042435,20.2089818 C25.8042435,22.4277205 26.6213803,23.4204057 28.0229822,23.4204057 C29.073487,23.4204057 29.8328041,22.6610886 30.0083527,21.4350352 L32.8101632,21.4350352 C32.6917376,23.9456581 30.9989481,25.7554801 27.9637694,25.7554801 L27.964466,25.7554801 Z M39.5241986,25.7554801 C36.371291,25.7554801 34.2110685,23.8871419 34.2110685,20.2089818 L34.2110685,19.9756137 C34.2110685,16.2974536 36.48902,14.2542636 39.4656825,14.2542636 C42.2103701,14.2542636 44.4862317,15.7728979 44.4862317,19.4510579 L44.4862317,20.7927504 L37.3639762,20.7927504 C37.480312,22.7781209 38.3559648,23.5374381 39.6405344,23.5374381 C40.8080716,23.5374381 41.4503563,22.8944567 41.6837245,22.1358362 L44.5447478,22.1358362 C44.0780116,24.1790262 42.385222,25.7554801 39.5241986,25.7554801 Z M37.30546,18.7495604 L41.4503563,18.7495604 C41.3918402,17.1145903 40.6332196,16.414486 39.4071663,16.414486 C38.4723006,16.4730022 37.5959511,16.9982546 37.3047634,18.7495604 L37.30546,18.7495604 Z M46.2960536,14.5461479 L49.3904451,14.5461479 L49.3904451,16.1811179 C49.9156975,15.1306131 51.0247185,14.314173 52.7182047,14.314173 C54.7035752,14.314173 56.0459643,15.5402264 56.0459643,18.1664884 L56.0459643,25.5228086 L52.9515728,25.5228086 L52.9515728,18.6332246 C52.9515728,17.3493517 52.4263204,16.7662797 51.3166028,16.7662797 C50.266098,16.7662797 49.3904451,17.4071713 49.3904451,18.8087732 L49.3904451,25.5214153 L46.2960536,25.5214153 L46.2960536,14.5454513 L46.2960536,14.5461479 Z M61.7680111,11.2190849 L61.7680111,14.5468445 L63.8690207,14.5468445 L63.8690207,16.8247959 L61.7673145,16.8247959 L61.7673145,22.020197 C61.7673145,22.8373337 62.117715,23.2462504 62.8763355,23.2462504 C63.3430717,23.2462504 63.6342594,23.1877342 63.9261437,23.0720951 L63.9261437,25.464989 C63.5764398,25.5813248 62.934155,25.6983571 62.1748379,25.6983571 C59.7812474,25.6983571 58.6722264,24.5893361 58.6722264,22.3705975 L58.6722264,16.8254925 L57.3876568,16.8254925 L57.3876568,14.5475411 L58.672923,14.5475411 L58.672923,12.5043511 L61.7673145,11.2197815 L61.7680111,11.2190849 Z M75.4287534,25.522112 L72.3343619,25.522112 L72.3343619,23.8871419 C71.8084129,24.9376467 70.7579081,25.7554801 69.122938,25.7554801 C67.1375675,25.7554801 65.6788427,24.5294267 65.6788427,21.9602876 L65.6788427,14.5454513 L68.7718409,14.5454513 L68.7718409,21.5534608 C68.7718409,22.8373337 69.2984866,23.4204057 70.3489914,23.4204057 C71.4008894,23.4204057 72.2758457,22.720998 72.2758457,21.3779123 L72.2758457,14.6067539 L75.368844,14.6067539 L75.368844,25.5228086 L75.4287534,25.522112 Z M77.6467954,14.5468445 L80.7411869,14.5468445 L80.7411869,16.5907312 C81.3820784,15.1313097 82.4339765,14.4312054 84.0689465,14.4312054 L84.0689465,17.4663841 C81.9679369,17.4663841 80.7418835,18.1093655 80.7418835,19.9184908 L80.7418835,25.5820214 L77.647492,25.5820214 L77.647492,14.5454513 L77.6467954,14.5468445 Z M90.315549,25.7568733 C87.1626414,25.7568733 85.0024189,23.8885352 85.0024189,20.2103751 L85.0024189,19.977007 C85.0024189,16.2988469 87.2803704,14.2556568 90.2577295,14.2556568 C93.0024171,14.2556568 95.2782787,15.7742911 95.2782787,19.4524512 L95.2782787,20.7941437 L88.1567199,20.7941437 C88.2737522,22.7795142 89.1494051,23.5388313 90.433278,23.5388313 C91.6008152,23.5388313 92.2431,22.8958499 92.4771647,22.1372294 L95.3367949,22.1372294 C94.9278782,24.1804195 93.2350886,25.7568733 90.3162457,25.7568733 L90.315549,25.7568733 Z M88.1560232,18.7509536 L92.3009195,18.7509536 C92.2417067,17.1159836 91.4830862,16.4158793 90.2570329,16.4158793 C89.2643476,16.4743954 88.3886947,16.9996478 88.1553266,18.7509536 L88.1560232,18.7509536 Z"/>
    <path fill="#7E00FF" d="M102.166469,25.6969639 C99.4217817,25.6969639 97.3792883,23.8286257 97.3792883,20.7342342 L97.3792883,19.4496647 C97.3792883,16.3566664 99.4809945,14.4291155 102.109346,14.4291155 C104.268872,14.4291155 106.135817,15.4218008 106.369882,18.0487594 L104.794125,18.0487594 C104.618576,16.296757 103.451039,15.7129884 102.049437,15.7129884 C100.240312,15.7129884 98.9564388,17.1131971 98.9564388,19.4496647 L98.9564388,20.7342342 C98.9564388,23.186341 100.240312,24.4123943 102.10865,24.4123943 C103.508858,24.4123943 104.794125,23.5952576 104.91046,21.7861323 L106.369185,21.7861323 C106.311366,24.1790262 104.559363,25.6969639 102.165773,25.6969639 L102.166469,25.6969639 Z M107.946336,20.6764147 L107.946336,19.3925418 C107.946336,16.4151826 109.989526,14.3712959 112.733517,14.3712959 C115.535327,14.3712959 117.519305,16.3566664 117.519305,19.3918451 L117.519305,20.6764147 C117.519305,23.71229 115.535327,25.6976605 112.733517,25.6976605 C109.93101,25.6976605 107.945639,23.6544704 107.945639,20.6771113 L107.946336,20.6764147 Z M115.944941,20.6764147 L115.944941,19.3925418 C115.944941,17.0574674 114.718887,15.6558655 112.791336,15.6558655 C110.805966,15.6558655 109.579912,17.115287 109.579912,19.3925418 L109.579912,20.6771113 C109.579912,22.9550627 110.805966,24.3552714 112.791336,24.3552714 C114.718191,24.4137876 115.944244,22.9550627 115.944244,20.6771113 L115.944941,20.6764147 Z M119.680224,14.5461479 L121.256678,14.5461479 L121.256678,16.1811179 C121.723414,15.1891293 122.833131,14.3712959 124.468101,14.3712959 C126.510595,14.3712959 127.970713,15.5388331 127.970713,18.3991599 L127.970713,25.5214153 L126.394259,25.5214153 L126.394259,18.2821275 C126.394259,16.5308218 125.634942,15.7136851 124.059185,15.7136851 C122.54055,15.7136851 121.256678,16.7063703 121.256678,18.5161923 L121.256678,25.5799315 L119.680224,25.5799315 L119.680224,14.5454513 L119.680224,14.5461479 Z M133.926128,25.6976605 C131.474021,25.6976605 129.896871,24.3545748 129.838354,22.1936557 L131.414808,22.1936557 C131.473324,23.5381347 132.290461,24.3545748 133.925431,24.3545748 C135.502582,24.3545748 136.203383,23.7708062 136.203383,22.5447528 C136.203383,21.3772156 135.385549,20.9689956 133.751276,20.5593823 C131.182137,19.859278 130.130935,19.1006575 130.130935,17.2908355 C130.130935,15.3639812 131.940757,14.3134764 133.69276,14.3134764 C135.618917,14.3134764 137.253887,15.1306131 137.428739,17.4656874 L135.851589,17.4656874 C135.677434,16.2396341 134.918116,15.6565621 133.633547,15.6565621 C132.407494,15.6565621 131.590357,16.2988469 131.590357,17.233016 C131.590357,18.2835208 132.231248,18.6332246 134.099587,19.1598703 C136.201293,19.6851227 137.660714,20.2688913 137.660714,22.4876299 C137.660714,24.413091 136.434661,25.6976605 133.924735,25.6976605 L133.926128,25.6976605 Z M147.761025,25.522112 L146.185268,25.522112 L146.185268,23.8871419 C145.718532,24.8798272 144.608814,25.6969639 143.033057,25.6969639 C140.98917,25.6969639 139.588265,24.5879429 139.588265,21.8446485 L139.588265,14.5454513 L141.164719,14.5454513 L141.164719,21.7854357 C141.164719,23.5952576 141.924036,24.3538782 143.441277,24.3538782 C144.901395,24.3538782 146.185965,23.3618895 146.185965,21.6091905 L146.185965,14.5454513 L147.762419,14.5454513 L147.762419,25.5214153 L147.761025,25.522112 Z M150.447197,9.58341824 L152.08147,9.58341824 L152.08147,25.5799315 L150.447197,25.5799315 L150.447197,9.58341824 L150.447197,9.58341824 Z M156.870045,12.0947378 L156.870045,14.5468445 L159.262939,14.5468445 L159.262939,15.8899302 L156.869348,15.8899302 L156.869348,22.7795142 C156.869348,23.830019 157.336084,24.3552714 158.153221,24.3552714 C158.619957,24.3552714 159.028874,24.2967552 159.320758,24.1811161 L159.320758,25.5228086 C159.028177,25.6398409 158.620654,25.7568733 158.036885,25.7568733 C156.168547,25.7568733 155.234378,24.7049753 155.234378,23.0121857 L155.234378,16.006266 L153.774956,16.006266 L153.774956,14.6638769 L155.234378,14.6638769 L155.234378,12.2117701 L156.869348,12.2117701 L156.870045,12.0947378 Z M161.13058,11.3368139 C161.13058,10.7530453 161.597316,10.2849158 162.182478,10.2849158 C162.76555,10.2849158 163.232286,10.7530453 163.232286,11.3368139 C163.232286,11.9205825 162.76555,12.3873187 162.182478,12.3873187 C161.59871,12.3873187 161.13058,11.9205825 161.13058,11.3368139 Z M161.364645,14.5482377 L162.940402,14.5482377 L162.940402,25.5228086 L161.364645,25.5228086 L161.364645,14.5454513 L161.364645,14.5482377 Z M165.625877,14.5482377 L167.202331,14.5482377 L167.202331,16.1818145 C167.669067,15.1898259 168.778785,14.3719926 170.413755,14.3719926 C172.456945,14.3719926 173.916366,15.5395297 173.916366,18.3998565 L173.916366,25.522112 L172.339912,25.522112 L172.339912,18.2821275 C172.339912,16.5308218 171.580595,15.7136851 170.004838,15.7136851 C168.486204,15.7136851 167.202331,16.7063703 167.202331,18.5161923 L167.202331,25.5799315 L165.625877,25.5799315 L165.625877,14.5454513 L165.625877,14.5482377 Z M180.631795,29.2580916 C177.711559,29.2580916 176.368473,27.9150059 176.135105,26.1051839 L177.711559,26.1051839 C177.944927,27.3312373 178.879096,27.9150059 180.572582,27.9150059 C182.49874,27.9150059 183.724793,26.9815334 183.724793,24.7627948 L183.724793,23.186341 C183.141024,24.238239 181.856455,25.1717115 180.339214,25.1717115 C177.770075,25.1717115 175.960253,23.3033733 175.960253,20.4416533 L175.960253,19.2156 C175.960253,16.4151826 177.771468,14.3127798 180.456246,14.3127798 C182.149036,14.3127798 183.141721,15.1299165 183.72549,16.1797247 L183.72549,14.4869351 L185.301247,14.4869351 L185.301247,24.821311 C185.301247,27.8585796 183.432909,29.2587882 180.631098,29.2587882 L180.631795,29.2580916 Z M183.783309,20.3838338 L183.783309,19.276206 C183.783309,16.9982546 182.616469,15.7143817 180.690311,15.7143817 C178.763457,15.7143817 177.595919,17.1145903 177.595919,19.2169932 L177.595919,20.5015628 C177.595919,22.7196047 178.879792,23.9456581 180.573279,23.9456581 C182.441617,23.8871419 183.784702,22.6025724 183.784702,20.3838338 L183.783309,20.3838338 Z"/>
  </g>
</svg>
