<?xml version="1.0" encoding="UTF-8"?>
<svg width="236px" height="80px" viewBox="0 0 236 80" version="1.1" xmlns="http://www.w3.org/2000/svg" xmlns:xlink="http://www.w3.org/1999/xlink">
    <!-- Generator: Sketch 46.2 (44496) - http://www.bohemiancoding.com/sketch -->
    <title>Page 1</title>
    <desc>Created with Sketch.</desc>
    <defs>
        <polygon id="path-1" points="31.140797 38.4169102 31.140797 0.295348469 0.187526882 0.295348469 0.187526882 38.4169102 31.140797 38.4169102"></polygon>
        <polygon id="path-3" points="1.34639485e-20 0.207980736 1.34639485e-20 19.5567939 14.6349839 19.5567939 14.6349839 0.207980736 0 0.207980736"></polygon>
    </defs>
    <g id="Article---Headers" stroke="none" stroke-width="1" fill="none" fill-rule="evenodd">
        <g id="1440---Article-Header---Special-Reports-Horizontal" transform="translate(-185.000000, -332.000000)">
            <g id="Group-11" transform="translate(0.000000, 232.000000)">
                <g id="Group-10">
                    <g id="Page-1" transform="translate(185.000000, 100.000000)">
                        <path d="M22.264984,55.9474299 C19.890647,55.9474299 17.9994835,58.1458139 17.9994835,60.9154875 C17.9994835,63.1148844 19.4064605,64.3455878 21.2101733,64.3455878 C23.5831597,64.3455878 25.4753361,62.103648 25.4753361,59.2887305 C25.4753361,57.2216891 24.0673462,55.9474299 22.264984,55.9474299 M32.5108965,70.2374326 C28.8170331,70.2374326 26.5304845,68.8743737 25.2994218,67.5113149 C23.8043188,68.9631735 21.7818105,70.281326 19.0107377,70.281326 C14.4369651,70.281326 10.9642609,66.8083452 10.9642609,61.4435588 C10.9642609,55.1559981 15.4931264,50.0106788 20.7256492,50.0106788 C23.4521525,50.0106788 25.342303,51.3298443 26.6179352,52.9579517 L27.1460158,50.5823059 L33.9627806,51.7255601 L31.7630073,63.9937653 C31.7184378,64.3894812 31.6745437,65.0495704 31.6745437,65.4452863 C31.6745437,66.8522386 32.729692,67.9519371 34.4884977,67.9519371 C37.2595705,67.9519371 39.7223711,64.9611083 39.7223711,58.9804638 C39.7223711,50.8470169 32.291088,43.3274022 22.3963289,43.3274022 C12.4593639,43.3274022 4.98351126,51.1988393 4.98351126,60.8280383 C4.98351126,70.501806 12.3712379,78.2412252 22.7481575,78.2412252 C27.1011087,78.2412252 30.2240101,77.2299888 33.5221506,75.2956405 L34.401047,76.7022551 C31.0154558,78.7682837 27.3219302,80 22.7481575,80 C11.4909909,80 3.1372549,71.3371311 3.1372549,60.8280383 C3.1372549,50.3189455 11.6233487,41.5686275 22.3963289,41.5686275 C33.1699843,41.5686275 41.5686275,49.9667854 41.5686275,58.9804638 C41.5686275,66.7198831 37.5678426,70.2374326 32.5108965,70.2374326" id="Fill-1" fill="#020303"></path>
                        <polygon id="Fill-3" fill="#020303" points="63.5294118 42.3529412 65.6830131 42.3529412 78.0390458 60.4439811 90.3940596 42.3529412 92.5490196 42.3529412 92.5490196 72.9411765 90.2622619 72.9411765 90.2622619 46.3732848 78.0818461 63.9832608 77.9058894 63.9832608 65.7268324 46.3732848 65.7268324 72.9411765 63.5294118 72.9411765"></polygon>
                        <path d="M118.954999,62.3980631 L110.936629,44.8263192 L102.875843,62.3980631 L118.954999,62.3980631 Z M109.89137,42.3529412 L112.069415,42.3529412 L126.27451,72.9411765 L123.791471,72.9411765 L119.914416,64.4373682 L101.916762,64.4373682 L98.0397077,72.9411765 L95.6862745,72.9411765 L109.89137,42.3529412 Z" id="Fill-5" fill="#020303"></path>
                        <path d="M141.308626,58.214883 C146.460152,58.214883 150.289779,55.6363806 150.289779,51.2234214 L150.289779,51.1369987 C150.289779,47.0278692 147.031637,44.4507172 141.440952,44.4507172 L130.917471,44.4507172 L130.917471,58.214883 L141.308626,58.214883 Z M128.627451,42.3529412 L141.571577,42.3529412 C145.358683,42.3529412 148.396396,43.532476 150.245557,45.3676081 C151.699781,46.8094494 152.58116,48.8636765 152.58116,51.0485504 L152.58116,51.1369987 C152.58116,56.2497793 148.750172,59.1770107 143.553404,59.8754817 L153.72549,72.9411765 L150.818743,72.9411765 L141.000093,60.2687725 L130.917471,60.2687725 L130.917471,72.9411765 L128.627451,72.9411765 L128.627451,42.3529412 Z" id="Fill-7" fill="#020303"></path>
                        <polygon id="Fill-9" fill="#020303" points="159.215686 42.3529412 161.457588 42.3529412 161.457588 62.4539841 180.691167 42.3529412 183.753666 42.3529412 170.556798 55.8548005 184.313725 72.9411765 181.381495 72.9411765 168.961246 57.4715127 161.457588 65.1627956 161.457588 72.9411765 159.215686 72.9411765"></polygon>
                        <polygon id="Fill-11" fill="#020303" points="186.666667 42.3529412 208.409223 42.3529412 208.409223 44.4507172 188.93732 44.4507172 188.93732 56.4681991 206.445842 56.4681991 206.445842 58.5646249 188.93732 58.5646249 188.93732 70.843738 208.627451 70.843738 208.627451 72.9411765 186.666667 72.9411765"></polygon>
                        <polygon id="Fill-13" fill="#020303" points="221.612018 44.4506941 210.980392 44.4506941 210.980392 42.3529412 234.509804 42.3529412 234.509804 44.4506941 223.877841 44.4506941 223.877841 72.9411765 221.612018 72.9411765"></polygon>
                        <polygon id="Fill-15" fill="#020303" points="51.0006183 51.6351374 46.2745098 51.6351374 46.2745098 46.527315 51.1328528 42.3529412 58.8235294 42.3529412 58.8235294 72.9411765 51.0006183 72.9411765"></polygon>
                        <path d="M71.9777851,9.73342898 L67.0263006,9.73342898 L67.0263006,19.8900563 L72.0323488,19.8900563 C75.786464,19.8900563 78.0717387,17.9137876 78.0717387,14.8391011 C78.0717387,11.49015 75.786464,9.73342898 71.9777851,9.73342898 M72.2499299,28.2349057 L67.0263006,28.2349057 L67.0263006,39.2156863 L56.4705882,39.2156863 L56.4705882,0.784313725 L72.7938825,0.784313725 C82.4247069,0.784313725 88.627451,5.72549505 88.627451,14.344949 C88.627451,23.5136119 81.7174001,28.2349057 72.2499299,28.2349057" id="Fill-17" fill="#020303"></path>
                        <path d="M127.843137,21.6484164 C127.843137,33.8647324 120.860178,39.2156863 110.087677,39.2156863 C99.3155098,39.2156863 92.5490196,33.8105269 92.5490196,21.9191093 L92.5490196,0.784313725 L103.212952,0.784313725 L103.212952,21.7568274 C103.212952,27.1623214 105.973766,29.75649 110.195911,29.75649 C114.418391,29.75649 117.179205,27.3242687 117.179205,22.0268511 L117.179205,0.784313725 L127.843137,0.784313725 L127.843137,21.6484164 Z" id="Fill-19" fill="#020303"></path>
                        <polygon id="Fill-21" fill="#020303" points="134.117647 0.784313725 144.680159 0.784313725 144.680159 29.8825326 163.137255 29.8825326 163.137255 39.2156863 134.117647 39.2156863"></polygon>
                        <g id="Group-25" transform="translate(165.490196, 0.000000)" fill="#020303">
                            <path d="M19.4567075,14.7608178 C28.3373035,16.5476454 33.5674525,19.3088319 33.5674525,26.6187029 C33.5674525,34.524183 27.4112016,39.0721971 18.3124016,39.0721971 C11.3936173,39.0721971 4.96452706,36.9605832 0.224746667,32.8456176 L6.10883294,25.9148316 C10.08608,29.0011396 14.0086918,30.4092174 18.5306055,30.4092174 C21.3635467,30.4092174 22.8892878,29.434188 22.8892878,27.8102564 C22.8892878,26.1856544 21.5817506,25.4274845 16.2969663,24.2905648 C8.0153349,22.5580359 2.02265255,20.2838612 2.02265255,12.270119 C2.02265255,5.17677225 7.63423686,0.0874476286 16.8416329,0.0874476286 C23.2707231,0.0874476286 28.3916016,1.81997654 32.5324173,5.12280878 L27.2476329,12.4866432 C23.7607545,9.99594436 19.9470761,8.75042735 16.569131,8.75042735 C14.0086918,8.75042735 12.7011545,9.77942014 12.7011545,11.1331993 C12.7011545,12.9739903 14.0629898,13.6235629 19.4567075,14.7608178" id="Fill-23"></path>
                        </g>
                        <g id="Group-28" transform="translate(203.921569, 0.784314)">
                            <mask id="mask-2" fill="white">
                                <use xlink:href="#path-1"></use>
                            </mask>
                            <g id="Clip-27"></g>
                            <polygon id="Fill-26" fill="#020303" mask="url(#mask-2)" points="30.8685305 9.28087307 10.6504406 9.28087307 10.6504406 15.0536698 28.9612144 15.0536698 28.9612144 23.385861 10.6504406 23.385861 10.6504406 29.4307114 31.1411006 29.4307114 31.1411006 38.4169102 0.187526882 38.4169102 0.187526882 0.295348469 30.8685305 0.295348469"></polygon>
                        </g>
                        <g id="Group-31" transform="translate(0.000000, 12.549020)">
                            <mask id="mask-4" fill="white">
                                <use xlink:href="#path-3"></use>
                            </mask>
                            <g id="Clip-30"></g>
                            <polygon id="Fill-29" fill="#020303" mask="url(#mask-4)" points="6.25312767 2.2255246 -6.62309368e-05 2.2255246 -6.62309368e-05 0.207980736 14.6349839 0.207980736 14.6349839 2.2255246 8.38178998 2.2255246 8.38178998 19.5567939 6.25312767 19.5567939"></polygon>
                        </g>
                        <polygon id="Fill-32" fill="#020303" points="18.0392157 13.3333333 20.1340305 13.3333333 20.1340305 21.696446 30.8463617 21.696446 30.8463617 13.3333333 32.9411765 13.3333333 32.9411765 32.1568627 30.8463617 32.1568627 30.8463617 23.6863247 20.1340305 23.6863247 20.1340305 32.1568627 18.0392157 32.1568627"></polygon>
                        <polygon id="Fill-34" fill="#020303" points="38.4313725 13.3333333 52.4108001 13.3333333 52.4108001 15.269332 40.6140034 15.269332 40.6140034 21.696446 51.1675119 21.696446 51.1675119 23.6324447 40.6140034 23.6324447 40.6140034 30.2208641 52.5490196 30.2208641 52.5490196 32.1568627 38.4313725 32.1568627"></polygon>
                    </g>
                </g>
            </g>
        </g>
    </g>
</svg>