<?xml version="1.0" encoding="utf-8"?>
<!-- Generator: Adobe Illustrator 22.0.1, SVG Export Plug-In . SVG Version: 6.00 Build 0)  -->
<svg version="1.1" id="Layer_1" xmlns="http://www.w3.org/2000/svg" xmlns:xlink="http://www.w3.org/1999/xlink" x="0px" y="0px"
	 viewBox="0 0 88 31" style="enable-background:new 0 0 88 31;" xml:space="preserve">
<style type="text/css">
	.st0{fill:#00A1E1;}
	.st1{fill:#5B5B5B;}
	.st2{fill:#FFFFFF;}
</style>
<rect class="st0" width="88" height="31"/>
<path class="st1" d="M88.5,31.5h-89v-32h89V31.5z M0.5,30.5h87v-30h-87V30.5z"/>
<g>
	<path class="st2" d="M40.7,18.9c0,1.2-1.4,2.3-2.6,2.3c-0.8,0-1.4-0.5-1.4-0.8c0-0.2,0.1-0.8,0.3-0.8c0.5,0,0.9,0.9,1.7,0.9
		c0.6,0,1.1-0.4,1.1-0.9c0-0.8-1.4-1.5-1.4-2.8c0-1.3,1.4-2.9,2.7-2.9c0.6,0,0.9,0.4,0.9,0.7c0,0.3-0.2,0.6-0.6,0.6
		c-0.5,0-0.8-0.4-1.3-0.4c-0.6,0-0.9,0.4-0.9,1C39.3,16.7,40.7,17.6,40.7,18.9L40.7,18.9z"/>
	<path class="st2" d="M14.9,19.2c-0.7,0.9-1.7,1.9-2.7,1.9c-0.4,0-0.5-0.2-0.5-0.5c0-0.9,1.8-3.9,1.8-5c0-0.4-0.1-0.5-0.5-0.5
		c-1.1,0-3.4,2.9-4.3,5.7C8.6,20.9,8.5,21,8.1,21c-0.4,0-0.5-0.1-0.5-0.2c0-0.3,1.6-4.3,2.4-6.5c0.7-1.9,1.2-3.3,1.2-3.7
		c0-0.2-0.1-0.3-0.5-0.4c-0.1,0-0.4,0-0.5,0c0,0,0,0,0,0V9.9c0,0,0,0,0,0h2.1c0.2,0,0.2,0,0.2,0.2c0,0.1-0.5,1.6-1.5,4.3
		c-0.7,1.9-1.1,2.6-0.9,2.6c0.2,0,2-3,3.5-3c0.6,0,1,0.4,1,1.3c0,1.4-1.4,4.3-1.4,4.6c0,0.1,0.1,0.2,0.3,0.2c0.3,0,0.9-0.7,1.2-1
		c0,0,0,0,0.1,0L14.9,19.2C14.9,19.2,14.9,19.2,14.9,19.2L14.9,19.2z"/>
	<path class="st2" d="M7.3,19.5c-0.2,0.4-1.4,1.6-2.8,1.6c-1.4,0-1.9-1.1-2-2c-0.1-2.8,3.2-5.2,5.1-5.2c1,0,1.3,0.6,1.4,1.1
		c0,0.3-0.2,0.5-0.4,0.5c-0.6,0-0.8-1.2-1.5-1.2c-1.1,0-3.3,3.1-3.2,4.8c0,0.9,0.7,1.3,1.3,1.3c0.6,0,1.2-0.5,1.6-0.7
		c0.2-0.2,0.4-0.4,0.5-0.4c0,0,0,0,0.1,0L7.3,19.5C7.3,19.5,7.3,19.5,7.3,19.5L7.3,19.5z"/>
	<path class="st2" d="M23,15.9l0.1,0.2c0,0,0,0,0.1,0c0,0,0-0.1,0.1-0.1c0.3-0.3,0.8-1.1,1.1-1.1c0.2,0,0.3,0.2,0.3,0.4
		c0,1-1.7,5.2-1.7,5.5c0,0.1,0.1,0.2,0.2,0.2h0.6c0.1,0,0.2-0.1,0.3-0.3c0,0,0.3-0.7,0.5-1.1c1.3-2.7,2-3.9,2.5-4.4
		c1.1-1.1,1,0,1.5,0c0.4,0,0.6-0.4,0.6-0.8c0-0.5-0.3-0.6-0.6-0.6c-1,0-1.7,0.9-3,3.2c-0.1,0.2-0.2,0.3-0.2,0.3c0,0-0.1,0-0.1-0.1
		c0-0.2,0.6-2.3,0.6-2.7c0-0.4-0.2-0.5-0.5-0.5C24.6,13.9,23.4,15.2,23,15.9C23,15.8,23,15.9,23,15.9L23,15.9z"/>
	<path class="st2" d="M22.1,14l-0.4-0.2c0,0-0.1-0.1-0.2-0.1c-0.2,0.1-0.2,0.4-0.5,0.4c-0.3,0-0.5-0.1-1-0.1c-3.2,0-4.8,4.3-4.8,5.7
		c0,0.9,0.5,1.4,1.1,1.4c0.7,0,1.6-0.4,2.7-2c0.3-0.4,0.3-0.5,0.4-0.5c0.1,0,0.1,0.1,0.1,0.1c0,0.1-0.5,1-0.5,1.7
		c0,0.5,0.2,0.7,0.5,0.7c0.9,0,2-1.3,2.4-1.9c0,0,0,0,0,0l-0.2-0.2c0,0,0,0-0.1,0c-0.4,0.4-0.9,1.2-1.3,1.2c-0.1,0-0.2-0.1-0.2-0.3
		c0-0.6,1.9-5.3,2-5.6C22.2,14.1,22.2,14.1,22.1,14L22.1,14z M17,20.1c-0.3,0-0.5-0.1-0.5-0.7c0-2,1.7-5,3.3-5
		c0.6,0,0.9,0.5,0.9,0.9C20.6,16.2,18.4,20.1,17,20.1L17,20.1z"/>
	<path class="st2" d="M36.2,19.4l-0.1-0.2c0,0,0,0-0.1,0c-0.3,0.2-1.2,1-2,1c-0.8,0-1.2-0.5-1.2-1.2c0-1,0.5-1.7,0.8-2.2
		c0.2,0,0.4,0,0.8,0c1.1,0,3.4-0.5,3.4-1.9c0-0.6-0.5-1.1-1.4-1.1c-2,0-4.9,2.7-4.9,5.3c0,1.2,0.8,1.9,1.9,1.9
		C34.6,21.1,35.9,19.9,36.2,19.4C36.3,19.5,36.3,19.4,36.2,19.4L36.2,19.4z M33.8,16.4c0.2-0.4,1.3-2.2,2.3-2.2
		c0.4,0,0.6,0.3,0.6,0.7C36.8,15.9,35.5,16.4,33.8,16.4L33.8,16.4z"/>
	<path class="st2" d="M30.9,19.2c-0.6,0.7-1.5,1.9-2.3,1.9c-0.6,0-0.9-0.3-0.8-0.9c0-0.9,1.9-5.5,2.1-5.9c0.7-1.9,1.3-3.3,1.3-3.7
		c0-0.2-0.1-0.3-0.4-0.4c-0.1,0-0.4,0-0.5,0c0,0,0,0,0,0l0-0.3c0,0,0,0,0,0h2.1c0.2,0,0.2,0,0.2,0.2c0,0.1-0.6,1.6-1.7,4.3
		c-0.9,2.4-1.9,5-1.9,5.5c0,0.2,0.1,0.3,0.2,0.3c0.3,0,0.7-0.4,1.3-1.1c0,0,0,0,0.1,0L30.9,19.2C30.9,19.2,31,19.2,30.9,19.2
		L30.9,19.2z"/>
	<path class="st2" d="M47.5,15.7c-0.2-0.6-0.5-1.4-1.4-1.4c-0.7,0-1.1,0.5-1.1,1.1c0,0.6,0.4,1,1.2,1.4l0.3,0.1
		c0.8,0.4,1.6,0.9,1.6,2c0,1.3-1,2.1-2.4,2.1c-0.4,0-0.8-0.1-1.1-0.2c-0.3-0.1-0.5-0.2-0.6-0.2c-0.1-0.3-0.2-1-0.3-1.6L44,19
		c0.2,0.6,0.8,1.7,1.9,1.7c0.7,0,1.1-0.5,1.1-1.2c0-0.6-0.3-1-1.1-1.4l-0.3-0.2c-0.7-0.4-1.6-0.9-1.6-2c0-1.1,0.8-2,2.3-2
		c0.3,0,0.7,0,1,0.1c0.2,0.1,0.3,0.1,0.4,0.1c0,0.4,0.1,0.8,0.2,1.4L47.5,15.7L47.5,15.7z"/>
	<path class="st2" d="M54.8,15.9c-0.3-1.2-1-1.6-2-1.6c-1.7,0-2.5,1.5-2.5,3c0,2,1,3.3,2.5,3.3c1.1,0,1.7-0.6,2.2-1.7l0.3,0.1
		c-0.1,0.5-0.4,1.4-0.5,1.8c-0.3,0.1-1.2,0.3-2,0.3c-2.8,0-3.9-1.8-3.9-3.5c0-2.2,1.7-3.7,4.1-3.7c0.9,0,1.6,0.2,1.9,0.3
		c0.1,0.6,0.1,1.1,0.2,1.7L54.8,15.9L54.8,15.9z"/>
	<path class="st2" d="M58.8,14.1v0.3c-0.8,0.1-0.9,0.1-0.9,1.3v1.4h3.2v-1.4c0-1.1-0.1-1.2-0.9-1.3v-0.3h3v0.3
		c-0.8,0.1-0.9,0.1-0.9,1.3v3.7c0,1.1,0.1,1.2,0.9,1.3V21h-3.1v-0.3c0.9-0.1,1-0.1,1-1.3v-1.8h-3.2v1.8c0,1.1,0.1,1.2,0.9,1.3V21h-3
		v-0.3c0.8-0.1,0.9-0.1,0.9-1.3v-3.7c0-1.1-0.1-1.2-1-1.3v-0.3H58.8L58.8,14.1z"/>
	<path class="st2" d="M69,14.2l1.8,5h0c0.4-1.3,0.9-3.3,1.1-4c0.2-0.7,0.1-0.8-0.4-0.8c-0.1,0-0.4,0-0.4,0v-0.3h2.4v0.3
		c-0.7,0.1-0.8,0.1-1.1,1.1c-0.2,0.4-0.9,2.6-1.8,5.6h-0.5l-1.8-5h0l-1.7,5h-0.5l-1.7-5.6c-0.3-0.9-0.5-1-1-1v-0.3h2.9v0.3
		c0,0-0.3,0-0.3,0c-0.4,0.1-0.5,0.1-0.4,0.7l1.2,4.1h0l1.6-5L69,14.2L69,14.2z"/>
	<path class="st2" d="M75.7,15.7L75.7,15.7l0.9,2.3h-1.7L75.7,15.7L75.7,15.7z M75.9,14.1l-2.1,5.5c-0.4,1-0.5,1-1.1,1.1V21H75v-0.3
		l-0.3,0c-0.5-0.1-0.6-0.2-0.4-0.8c0.1-0.4,0.3-1,0.5-1.4h2c0.2,0.6,0.5,1.2,0.6,1.5c0.1,0.4,0.1,0.5-0.3,0.6l-0.3,0V21h2.8v-0.3
		c-0.6-0.1-0.8-0.1-1.1-1.1c-0.4-1.1-0.9-2.4-1.3-3.7L76.3,14L75.9,14.1L75.9,14.1z"/>
	<path class="st2" d="M82,15c0-0.3,0-0.4,0.1-0.5c0.1,0,0.2-0.1,0.5-0.1c0.6,0,1.3,0.3,1.3,1.3c0,0.9-0.6,1.3-1.5,1.3H82V15L82,15z
		 M80,14.1v0.3c0.8,0.1,0.8,0.1,0.8,1.3v3.7c0,1.1-0.1,1.2-0.9,1.3V21h2.6c0.8,0,1.5-0.1,2-0.4c0.6-0.3,1-0.8,1-1.6
		c0-1.1-0.8-1.6-1.9-1.8v0c0.6-0.1,1.5-0.6,1.5-1.5c0-0.6-0.2-1-0.6-1.2c-0.4-0.2-0.8-0.3-1.6-0.3L80,14.1L80,14.1z M82.3,17.5
		c1.1,0,1.9,0.5,1.9,1.6c0,1.1-0.7,1.5-1.4,1.5c-0.7,0-0.8-0.2-0.8-1.2v-1.9L82.3,17.5L82.3,17.5z"/>
</g>
</svg>
